<svg width="879" height="1164" viewBox="0 0 879 1164" fill="none" xmlns="http://www.w3.org/2000/svg">
<g opacity="0.1">
<path d="M184.8 863L13 1010.59L703.232 1013L872 863H184.8Z" fill="#8B587D"/>
</g>
<path fill-rule="evenodd" clip-rule="evenodd" d="M270.394 750.243C270.394 760.072 264.182 768.039 256.519 768.039C248.857 768.039 242.644 760.072 242.644 750.243C242.644 740.416 248.857 732.449 256.519 732.449C264.182 732.449 270.394 740.416 270.394 750.243Z" fill="#4F4F4F"/>
<path fill-rule="evenodd" clip-rule="evenodd" d="M253.916 910.398H259.287V755.558H253.916V910.398Z" fill="#4F4F4F"/>
<path fill-rule="evenodd" clip-rule="evenodd" d="M253.917 910.397L191.363 923.76L187.326 920.021L253.917 894.866V910.397Z" fill="#4F4F4F"/>
<path fill-rule="evenodd" clip-rule="evenodd" d="M259.287 910.397L321.84 923.76L325.877 920.021L259.287 894.866V910.397Z" fill="#4F4F4F"/>
<path fill-rule="evenodd" clip-rule="evenodd" d="M252.341 928.362H260.862V905.927H252.341V928.362Z" fill="#4F4F4F"/>
<path fill-rule="evenodd" clip-rule="evenodd" d="M197.224 928.661C197.224 933.784 193.986 937.936 189.992 937.936C185.997 937.936 182.759 933.784 182.759 928.661C182.759 923.538 185.997 919.385 189.992 919.385C193.986 919.385 197.224 923.538 197.224 928.661Z" fill="#4F4F4F"/>
<path fill-rule="evenodd" clip-rule="evenodd" d="M263.834 928.661C263.834 933.784 260.596 937.936 256.601 937.936C252.607 937.936 249.369 933.784 249.369 928.661C249.369 923.538 252.607 919.385 256.601 919.385C260.596 919.385 263.834 923.538 263.834 928.661Z" fill="#4F4F4F"/>
<path fill-rule="evenodd" clip-rule="evenodd" d="M331.077 928.661C331.077 933.784 327.839 937.936 323.844 937.936C319.851 937.936 316.612 933.784 316.612 928.661C316.612 923.538 319.851 919.385 323.844 919.385C327.839 919.385 331.077 923.538 331.077 928.661Z" fill="#4F4F4F"/>
<path fill-rule="evenodd" clip-rule="evenodd" d="M343.491 746.977H169.548C169.548 725.05 183.406 707.276 200.503 707.276H312.536C329.631 707.276 343.491 725.05 343.491 746.977Z" fill="#DECA77"/>
<path fill-rule="evenodd" clip-rule="evenodd" d="M248.225 414.349C248.225 414.349 291.189 422.649 290.8 447.361C290.6 460.071 277.827 473.536 283.727 477.576C306.783 493.369 281.068 498.919 295.616 511.5C317.255 530.213 302.866 560.779 279.513 558.106C255.322 555.338 265.968 590.021 224.479 579.081C201.097 572.915 194.375 567.546 177.899 558.781C161.421 550.015 152.349 506.144 173.481 485.271C186.624 472.053 198.8 473.709 206.512 451.334C214.223 428.959 221.434 415.312 232.57 417.466C236.804 411.743 248.225 414.349 248.225 414.349Z" fill="#253368"/>
<path fill-rule="evenodd" clip-rule="evenodd" d="M271.998 468.526C272.128 468.053 272.792 468.043 272.937 468.512C274.22 472.651 277.258 483.813 272.893 484.233C267.974 484.706 270.809 472.841 271.998 468.526Z" fill="white"/>
<path fill-rule="evenodd" clip-rule="evenodd" d="M229.061 501.161C231.02 484.179 232.881 470.302 232.881 470.302L259.069 485.069L257.523 505.763C256.329 513.382 249.061 518.501 241.478 517.064C233.46 515.543 228.127 509.262 229.061 501.161Z" fill="#F4B784"/>
<path fill-rule="evenodd" clip-rule="evenodd" d="M246.14 440.48C246.14 440.48 249.044 432.804 254.311 436.526C258.077 439.185 257.074 437.001 257.923 434.931C261.071 427.247 262.126 446.175 274.329 450.137C274.533 459.776 275.062 490.588 254.218 491.786C246.108 492.252 235.722 486.484 232.146 475.502C229.817 468.343 231.757 461.135 234.6 459.699C243.967 454.969 243.793 450.09 246.14 440.48Z" fill="#FFC999"/>
<path d="M263.738 449.093C263.864 448.756 264.239 448.586 264.575 448.712C264.878 448.825 265.046 449.14 264.985 449.447L264.956 449.549L263.076 454.557L263.032 455.163L263.022 455.338C262.828 458.774 263.008 463.338 263.848 468.761C263.908 469.143 263.621 469.492 263.234 469.51C261.715 469.577 260.352 469.747 259.154 469.988C258.605 470.099 258.129 470.217 257.728 470.334L257.393 470.438C257.338 470.456 257.296 470.471 257.268 470.482C256.932 470.609 256.557 470.44 256.429 470.104C256.302 469.768 256.471 469.393 256.807 469.266L256.97 469.209C257.071 469.175 257.202 469.134 257.362 469.087C257.798 468.959 258.311 468.832 258.896 468.714C259.843 468.523 260.885 468.375 262.016 468.283L262.456 468.251C261.727 463.277 261.549 459.037 261.699 455.73L261.755 454.763L261.792 454.339L261.829 454.18L263.738 449.093Z" fill="#DD936F"/>
<path d="M249.365 472.487C249.715 475.788 251.333 477.807 254.14 478.329C256.918 478.845 259.503 477.446 261.841 474.283C262.264 473.709 261.834 472.901 261.121 472.933L260.918 472.939L260.255 472.946C259.436 472.946 258.459 472.912 257.374 472.828C255.307 472.669 253.271 472.354 251.375 471.85C251.064 471.768 250.758 471.68 250.458 471.588C249.877 471.409 249.301 471.882 249.365 472.487ZM251.276 473.573L250.939 473.488C252.945 474.021 255.08 474.351 257.243 474.518L257.721 474.552C258.193 474.584 258.642 474.606 259.066 474.62L259.348 474.627L259.197 474.784C257.633 476.36 256.059 476.962 254.451 476.663C252.889 476.373 251.873 475.48 251.367 473.886L251.276 473.573Z" fill="#C44343"/>
<path d="M264.312 448.934C268.429 447.684 271.593 448.124 273.854 449.656C274.674 450.212 275.196 450.782 275.46 451.197C275.711 451.593 275.593 452.116 275.198 452.367C274.802 452.617 274.278 452.5 274.027 452.105C273.88 451.874 273.514 451.473 272.902 451.058C271.072 449.818 268.439 449.452 264.806 450.555C264.357 450.691 263.884 450.439 263.748 449.991C263.611 449.543 263.864 449.07 264.312 448.934Z" fill="#253368"/>
<path d="M247.094 446.692C248.702 446.736 250.412 446.953 252.131 447.287C252.639 447.385 253.121 447.489 253.571 447.594L254.322 447.779C254.508 447.827 254.649 447.865 254.741 447.891C255.191 448.02 255.452 448.49 255.323 448.939C255.194 449.389 254.724 449.649 254.274 449.521L253.756 449.383L253.602 449.345C253.058 449.211 252.455 449.076 251.808 448.95C250.173 448.633 248.551 448.427 247.047 448.386C245.879 448.354 244.828 448.424 243.924 448.606C243.465 448.699 243.018 448.402 242.925 447.943C242.832 447.484 243.129 447.037 243.588 446.945C244.5 446.761 245.514 446.678 246.616 446.684L247.094 446.692Z" fill="#253368"/>
<path d="M252.768 480.937L255.034 481.008C255.393 481.019 255.675 481.319 255.664 481.678C255.653 482.001 255.409 482.261 255.099 482.302L254.993 482.307L252.727 482.236C252.368 482.225 252.086 481.925 252.097 481.566C252.107 481.243 252.351 480.983 252.662 480.942L252.768 480.937Z" fill="#DD936F"/>
<path fill-rule="evenodd" clip-rule="evenodd" d="M220.209 464.351C218.614 456.183 226.429 456.814 226.429 456.814C226.429 456.814 226.443 464.925 228.444 472.213C220.607 471.84 220.209 464.351 220.209 464.351Z" fill="#FFC999"/>
<path fill-rule="evenodd" clip-rule="evenodd" d="M224.528 470.13C224.659 469.658 225.324 469.647 225.468 470.117C226.75 474.256 229.788 485.418 225.426 485.838C220.505 486.311 223.341 474.445 224.528 470.13Z" fill="white"/>
<path d="M268.597 455.971C270.413 456.171 271.549 458.186 271.306 460.381C271.255 460.846 270.835 461.182 270.37 461.13C269.904 461.079 269.569 460.66 269.62 460.195C269.771 458.833 269.153 457.737 268.411 457.656C267.668 457.574 266.826 458.508 266.675 459.869C266.624 460.334 266.205 460.67 265.739 460.618C265.273 460.567 264.938 460.148 264.989 459.683C265.224 457.564 266.676 455.89 268.41 455.957L268.597 455.971Z" fill="#253368"/>
<path d="M245.486 457.952C245.831 455.62 247.687 453.896 249.722 454.196C251.758 454.495 253.037 456.682 252.692 459.014C252.624 459.477 252.193 459.797 251.729 459.729C251.266 459.661 250.946 459.23 251.014 458.767C251.233 457.289 250.492 456.022 249.475 455.873C248.458 455.723 247.382 456.721 247.164 458.199C247.096 458.662 246.664 458.982 246.201 458.914C245.738 458.845 245.417 458.415 245.486 457.952Z" fill="#253368"/>
<path fill-rule="evenodd" clip-rule="evenodd" d="M189.57 709.926C189.57 709.926 208.735 620.898 209.293 609.441C210.428 586.198 182.648 582.983 178.09 603.079C172.224 628.945 170.735 708.914 170.735 708.914L189.57 709.926Z" fill="#FFC999"/>
<path fill-rule="evenodd" clip-rule="evenodd" d="M201.669 750.839C204.722 750.902 204.76 737.34 204.266 734.36C203.611 730.389 190.131 714.478 190.131 714.478L194.648 684.521L171.824 694.362C171.824 694.362 169.68 712.65 171.092 722.534C172.143 729.91 178.145 732.854 183.341 744.16C185.744 749.392 189.04 755.232 192.205 753.113C192.83 752.697 196.443 755.391 197.371 751.612C197.371 751.612 198.31 753.239 200.044 752.68C201.549 752.195 201.669 750.839 201.669 750.839Z" fill="#FFC999"/>
<path d="M183.601 733.674C183.783 733.506 184.068 733.517 184.236 733.7L184.494 733.991L184.812 734.366C184.923 734.5 185.039 734.643 185.16 734.794C185.846 735.655 186.533 736.61 187.174 737.634C188.175 739.233 188.971 740.851 189.487 742.449L192.841 752.837C192.917 753.073 192.787 753.326 192.551 753.402C192.314 753.478 192.061 753.348 191.985 753.112L188.631 742.725C188.141 741.204 187.376 739.651 186.412 738.111C185.79 737.117 185.123 736.189 184.456 735.353C184.282 735.134 184.116 734.934 183.963 734.752L183.576 734.309C183.407 734.127 183.419 733.842 183.601 733.674Z" fill="#DD936F"/>
<path d="M190.091 730.377C190.306 730.253 190.581 730.327 190.705 730.542L190.898 730.887C191.05 731.164 191.22 731.479 191.402 731.829C191.922 732.827 192.443 733.9 192.929 735.008C193.49 736.289 193.97 737.533 194.34 738.711C194.533 739.324 194.695 739.913 194.823 740.476L195.077 741.574C195.167 741.955 195.262 742.35 195.362 742.759L195.647 743.916L195.784 744.461C196.038 745.469 196.304 746.5 196.574 747.529L197.525 751.078C197.591 751.317 197.45 751.564 197.211 751.63C196.972 751.696 196.724 751.555 196.658 751.316L196.112 749.298C195.703 747.766 195.294 746.197 194.912 744.68L194.642 743.597C194.38 742.537 194.147 741.558 193.946 740.675C193.824 740.137 193.669 739.571 193.483 738.981C193.123 737.836 192.655 736.621 192.105 735.369C191.628 734.281 191.116 733.225 190.604 732.244L190.225 731.531L189.925 730.99C189.802 730.775 189.876 730.5 190.091 730.377Z" fill="#DD936F"/>
<path d="M195.494 728.463C195.7 728.325 195.98 728.38 196.118 728.586L196.312 728.886C196.464 729.126 196.633 729.402 196.815 729.709C197.334 730.587 197.853 731.547 198.338 732.561C199.211 734.385 199.874 736.176 200.245 737.863C200.47 738.886 200.582 739.853 200.568 740.754C200.533 743.097 200.73 745.374 201.08 747.485C201.193 748.165 201.314 748.776 201.434 749.31L201.592 749.96C201.658 750.199 201.517 750.446 201.278 750.512C201.039 750.578 200.791 750.437 200.725 750.198L200.627 749.806L200.557 749.508C200.433 748.958 200.309 748.329 200.193 747.632C199.835 745.471 199.633 743.141 199.67 740.741C199.682 739.914 199.578 739.015 199.367 738.056C199.013 736.444 198.372 734.715 197.527 732.948C197.149 732.158 196.749 731.399 196.345 730.689L196.041 730.166C195.908 729.942 195.783 729.735 195.666 729.548L195.371 729.086C195.233 728.88 195.288 728.601 195.494 728.463Z" fill="#DD936F"/>
<path fill-rule="evenodd" clip-rule="evenodd" d="M359.426 512.146C359.426 512.146 308.18 577.064 301.63 586.484C285.075 610.303 316.118 624.619 326.149 609.349C332.192 600.146 342.162 580.727 351.064 563.894C363.613 540.166 372.05 522.448 372.05 522.448L359.426 512.146Z" fill="#FFC999"/>
<path fill-rule="evenodd" clip-rule="evenodd" d="M326.654 596.935C326.654 596.935 306.523 541.3 301.79 530.85C290.36 505.611 274.198 504.267 266.921 518.3C258.15 535.216 299.403 608.871 299.403 608.871C299.403 608.871 304.804 618.718 317.074 615.074C331.577 610.768 326.654 596.935 326.654 596.935Z" fill="#FFC999"/>
<path fill-rule="evenodd" clip-rule="evenodd" d="M313.833 558.425C311.732 553.083 300.224 502.978 277.299 510.135C259.467 515.702 261.947 534.969 279.592 572.325L313.833 558.425Z" fill="#909044"/>
<path fill-rule="evenodd" clip-rule="evenodd" d="M357.125 517.581L365.05 490.409C365.05 490.409 379.357 467.972 385.075 469.022C390.418 470.58 378.958 477.368 376.979 483.606C381.944 483.076 380.034 489.064 380.034 489.064C380.034 489.064 383.995 488.752 383.216 493.592C387.004 495.138 384.381 500.778 384.381 500.778C384.381 500.778 377.851 515.62 370.233 525.68C370.233 525.68 357.13 534.682 357.125 517.581Z" fill="#FFC999"/>
<path fill-rule="evenodd" clip-rule="evenodd" d="M358.702 508.455C358.702 508.455 359.573 499.228 360.355 494.51C361.139 489.793 358.147 481.494 362.571 483.512C365.548 484.87 365.346 489.905 365.465 493.606C365.585 497.306 373.639 505.692 368.392 512.033C364.849 516.319 358.903 517.153 358.702 508.455Z" fill="#FFC999"/>
<path d="M377.455 483.163C377.7 483.426 377.685 483.837 377.422 484.082L377.169 484.323L376.729 484.756C376.651 484.834 376.571 484.914 376.489 484.998C375.784 485.714 375.08 486.478 374.424 487.258C373.793 488.008 373.24 488.733 372.789 489.416C372.013 490.591 371.572 491.591 371.527 492.324C371.484 493.023 371.794 493.44 372.667 493.68C373.013 493.776 373.216 494.134 373.121 494.48C373.025 494.826 372.667 495.029 372.321 494.933C370.864 494.532 370.146 493.567 370.228 492.244C370.291 491.232 370.812 490.048 371.703 488.7C372.185 487.971 372.767 487.207 373.428 486.421C374.107 485.613 374.834 484.825 375.561 484.086L376.044 483.603L376.536 483.13C376.799 482.885 377.21 482.9 377.455 483.163Z" fill="#DD936F"/>
<path d="M380.111 488.897C380.314 489.194 380.237 489.598 379.941 489.801L379.668 489.992L379.194 490.334C379.11 490.396 379.023 490.46 378.935 490.526C378.176 491.092 377.418 491.698 376.712 492.316C376.016 492.925 375.41 493.513 374.921 494.066C374.21 494.868 373.776 495.562 373.668 496.075C373.577 496.509 373.716 496.765 374.256 496.994C374.618 497.147 375.013 497.193 375.448 497.137C376.329 497.024 377.325 496.503 378.342 495.699C378.763 495.366 379.158 495.008 379.514 494.65L379.826 494.325C379.879 494.267 379.922 494.22 379.952 494.184C380.186 493.912 380.597 493.881 380.87 494.114C381.142 494.348 381.173 494.759 380.939 495.031L380.789 495.199C380.696 495.3 380.578 495.424 380.437 495.566C380.046 495.959 379.614 496.351 379.149 496.718C377.964 497.656 376.775 498.277 375.614 498.426C374.959 498.51 374.331 498.438 373.747 498.19C372.644 497.722 372.174 496.859 372.395 495.808C372.56 495.023 373.099 494.161 373.947 493.204C374.477 492.606 375.121 491.981 375.854 491.338C376.588 490.696 377.372 490.07 378.156 489.485L378.424 489.286L379.207 488.727C379.504 488.525 379.908 488.601 380.111 488.897Z" fill="#DD936F"/>
<path d="M374.081 506.561L372.427 507.355C368.756 509.12 367.364 510.471 366.746 513.709C366.679 514.062 366.338 514.293 365.985 514.226C365.632 514.159 365.401 513.819 365.468 513.466C366.158 509.847 367.76 508.207 371.515 506.353L373.505 505.395C374.133 505.085 374.66 504.808 375.162 504.516C376.332 503.837 377.353 503.082 378.26 502.184L378.595 501.838L378.499 501.868C377.839 502.051 377.204 502.079 376.676 501.918L376.504 501.858C374.596 501.089 375.263 498.711 378.158 495.698C379.478 494.324 380.682 493.563 381.797 493.367C382.15 493.305 382.488 493.541 382.55 493.894C382.612 494.248 382.376 494.585 382.022 494.647C381.219 494.789 380.242 495.406 379.096 496.598L378.666 497.057C376.703 499.213 376.407 500.417 376.991 500.652C377.83 500.99 379.678 500.213 380.784 498.808C381.28 498.178 382.255 498.829 381.863 499.528C380.303 502.307 378.376 504.153 375.816 505.64C375.285 505.948 374.733 506.239 374.081 506.561Z" fill="#DD936F"/>
<path d="M365.211 488.339C365.53 488.287 365.833 488.476 365.933 488.772L365.959 488.875L367.087 495.698L367.289 495.95L367.513 496.245C367.915 496.783 368.316 497.383 368.691 498.03C369.799 499.945 370.458 501.875 370.429 503.715C370.411 504.899 370.102 506.002 369.47 506.993C369.277 507.296 368.875 507.385 368.572 507.192C368.269 507 368.18 506.598 368.373 506.295C368.871 505.514 369.114 504.646 369.129 503.695C369.153 502.13 368.566 500.411 367.565 498.681C367.217 498.08 366.843 497.521 366.47 497.021L366.266 496.753C366.143 496.595 366.047 496.478 365.985 496.407C365.932 496.346 365.891 496.277 365.864 496.202L365.834 496.086L364.675 489.087C364.616 488.733 364.856 488.398 365.211 488.339Z" fill="#DD936F"/>
<path d="M316.089 567.426C316.314 567.146 316.723 567.101 317.004 567.325C317.253 567.525 317.316 567.87 317.169 568.141L317.104 568.239L302.138 586.89C301.913 587.17 301.504 587.216 301.223 586.991C300.974 586.791 300.911 586.446 301.058 586.175L301.123 586.077L316.089 567.426Z" fill="#DD936F"/>
<path d="M243.5 488L276.842 517.25H210.158L243.5 488Z" fill="#F4B784"/>
<path d="M245.5 508L278.842 537.25H212.158L245.5 508Z" fill="#F4B784"/>
<path fill-rule="evenodd" clip-rule="evenodd" d="M215.941 615.03C229.298 618.284 266.255 616.728 270.223 615.03C274.19 613.331 272.026 601.207 272.026 601.207C296.225 539.49 293.94 518.982 291.82 514.394C288.955 508.19 263.285 508.542 262.315 503.7C261.836 501.314 250.609 527.03 250.609 527.03C250.609 527.03 227.074 500.309 225.325 503.222C221.923 508.886 201.023 504.495 192.424 515.948C177.057 536.419 198.046 571.598 209.592 597.186C209.592 597.186 208.876 609.216 215.941 615.03Z" fill="#909044"/>
<path fill-rule="evenodd" clip-rule="evenodd" d="M212.634 597.934C212.634 597.934 223.519 548.89 223.1 537.426C222.092 509.741 202.734 506.951 192.852 519.293C185.21 528.836 180.435 600.893 180.435 600.893C180.435 600.893 183.346 613.22 196.082 614.491C211.136 615.996 212.634 597.934 212.634 597.934Z" fill="#FFC999"/>
<path fill-rule="evenodd" clip-rule="evenodd" d="M203.997 509.749C190.606 512.51 185.47 525.716 184.255 563.195L219.599 568.922C219.679 563.18 242.842 505.614 201.181 510.29" fill="#909044"/>
<path d="M212.053 517.381C212.194 517.059 212.569 516.913 212.891 517.053C216.111 518.461 218.571 522.054 220.428 527.151C221.262 529.439 221.918 531.885 222.417 534.33C222.556 535.014 222.675 535.659 222.775 536.256L222.939 537.308L222.979 537.601L222.98 537.749L219.479 569.244C219.44 569.593 219.125 569.844 218.776 569.805C218.462 569.77 218.227 569.512 218.211 569.207L218.214 569.103L221.706 537.685L221.59 536.892C221.48 536.196 221.341 535.42 221.17 534.584C220.683 532.196 220.043 529.809 219.233 527.586C217.484 522.786 215.2 519.45 212.381 518.218C212.059 518.077 211.913 517.703 212.053 517.381Z" fill="#253368"/>
<path d="M282.719 526.98C282.83 526.647 283.191 526.467 283.524 526.578C283.824 526.677 284 526.979 283.951 527.281L283.926 527.381L282.086 532.898L286.889 546.176L286.961 546.325C286.989 546.386 287.02 546.457 287.055 546.539L287.169 546.815C287.37 547.318 287.57 547.904 287.756 548.571C289.925 556.349 288.439 565.877 280.621 576.195C280.409 576.475 280.01 576.53 279.729 576.318C279.449 576.107 279.394 575.708 279.606 575.428C287.175 565.439 288.596 556.322 286.53 548.912C286.357 548.291 286.172 547.747 285.988 547.286L285.869 547.001L285.724 546.68L280.815 533.124C280.778 533.023 280.768 532.915 280.784 532.81L280.809 532.706L282.719 526.98Z" fill="#253368"/>
<path fill-rule="evenodd" clip-rule="evenodd" d="M359.639 786.816C359.623 786.424 360.069 883.711 359.513 890.671C357.997 909.663 355.603 912.094 365.341 917.951C367.837 919.449 371.876 918.309 375.619 923.266C385.867 936.837 401.756 945.329 404.422 938.221C406.315 931.516 381.502 907.662 379.986 893.368C378.41 878.516 406.246 766.666 396.869 757.568C387.493 748.469 369.57 707.247 359.639 786.816Z" fill="#FFC999"/>
<path fill-rule="evenodd" clip-rule="evenodd" d="M358.602 919.865C358.602 919.865 356.134 909.283 359.277 896.826C359.277 896.826 367.202 905.329 373.973 914.486C381.792 925.06 383.844 925.731 383.844 925.731C394.422 929.988 397.375 923.98 397.375 923.98C397.375 923.98 402.67 932.07 413.156 941.171C422.545 949.321 383.612 947.649 379.101 937.42C374.591 927.194 368.059 920.897 368.059 920.897L363.803 935.492L360.115 935.085L358.602 919.865Z" fill="#253368"/>
<path fill-rule="evenodd" clip-rule="evenodd" d="M420.788 703.875L407.268 870.216L348.378 865.591C348.378 865.591 352.558 775.406 361.241 699.659C361.241 699.659 363.075 659.865 394.426 662.717C425.778 665.57 420.788 703.875 420.788 703.875Z" fill="#A3B5D6"/>
<path fill-rule="evenodd" clip-rule="evenodd" d="M387.474 659.675C326.43 652.114 281.351 651.469 267.236 655.004C267.236 655.004 237.931 660.875 243.429 683.413C250.138 710.915 281.648 711.374 281.648 711.374L383.707 719.373C391.822 720.095 418.526 723.182 420.067 691.846C421.519 662.288 388.804 659.839 387.474 659.675Z" fill="#A3B5D6"/>
<path fill-rule="evenodd" clip-rule="evenodd" d="M263.367 701.004L291.588 671.521C291.588 671.521 285.502 638.646 269.864 624.325L214.088 622.371C214.088 622.371 190.157 639.022 192.759 679.371L235.544 701.236L263.367 701.004Z" fill="#E2E9F4"/>
<path fill-rule="evenodd" clip-rule="evenodd" d="M212.785 623.022L269.864 624.325L268.446 615.597L214.673 613.977L212.785 623.022Z" fill="#E2E9F4"/>
<path d="M249.974 624.344C250.323 624.303 250.639 624.553 250.679 624.902C251.328 630.5 251.819 636.581 252.164 643.07C252.938 657.617 252.951 673.087 252.487 687.814L252.401 690.405C252.325 692.545 252.244 694.498 252.163 696.239L252.011 699.235C251.99 699.586 251.689 699.853 251.338 699.833C250.988 699.812 250.72 699.511 250.741 699.161L250.843 697.209L250.953 694.838C251.013 693.457 251.073 691.961 251.129 690.36C251.677 674.899 251.711 658.498 250.894 643.138C250.55 636.673 250.061 630.618 249.416 625.048C249.375 624.699 249.625 624.384 249.974 624.344Z" fill="#A3B5D6"/>
<path d="M212.95 622.839L268.888 623.815C269.239 623.821 269.519 624.11 269.513 624.461C269.508 624.777 269.272 625.035 268.969 625.079L268.866 625.086L212.927 624.109C212.576 624.103 212.296 623.814 212.302 623.463C212.308 623.147 212.543 622.889 212.846 622.845L212.95 622.839Z" fill="#A3B5D6"/>
<path fill-rule="evenodd" clip-rule="evenodd" d="M268.597 785.608C268.689 785.2 242.306 885.952 239.813 892.998C233.004 912.225 229.857 914.081 238.313 922.82C240.48 925.059 244.975 924.991 247.478 931.15C254.333 948.008 268.424 961.169 273.143 954.554C276.951 948.139 257.866 916.629 260.243 901.424C262.711 885.63 322.364 777.604 315.177 765.611C307.99 753.617 300.825 706.043 268.597 785.608Z" fill="#FFC999"/>
<path fill-rule="evenodd" clip-rule="evenodd" d="M230.813 922.945C230.813 922.945 231.182 911.32 237.868 899.298C237.868 899.298 243.72 910.277 248.197 921.612C253.366 934.705 255.304 935.966 255.304 935.966C265.072 943.281 269.786 937.881 269.786 937.881C269.786 937.881 273.029 947.706 281.363 960.009C288.827 971.025 249.018 958.57 247.174 946.748C245.332 934.927 240.311 926.617 240.311 926.617L231.882 940.54L228.179 939.105L230.813 922.945Z" fill="#253368"/>
<path fill-rule="evenodd" clip-rule="evenodd" d="M356.693 705.694L307.543 877.462L246.701 860.251C246.701 860.251 270.042 766.463 295.074 688.778C295.074 688.778 305.364 647.392 337.673 656.962C369.982 666.535 356.693 705.694 356.693 705.694Z" fill="#E2E9F4"/>
<path fill-rule="evenodd" clip-rule="evenodd" d="M324.658 654.055C256.951 644.107 235.724 644.232 219.935 647.81C219.935 647.81 187.191 653.601 192.736 678.806C199.506 709.567 234.541 710.871 234.541 710.871L318.962 720.36C327.97 721.367 360.099 723.487 360.099 690.658C360.099 657.733 326.132 654.27 324.658 654.055Z" fill="#E2E9F4"/>
<path d="M232.621 642.164L329.31 654.028C329.658 654.07 329.906 654.388 329.863 654.736C329.825 655.05 329.564 655.282 329.258 655.294L329.155 655.289L232.466 643.426C232.117 643.383 231.869 643.066 231.912 642.717C231.951 642.404 232.212 642.172 232.518 642.16L232.621 642.164Z" fill="#A3B5D6"/>
<path fill-rule="evenodd" clip-rule="evenodd" d="M685.394 818.761C685.394 824.915 679.182 829.903 671.519 829.903C663.857 829.903 657.644 824.915 657.644 818.761C657.644 812.608 663.857 807.62 671.519 807.62C679.182 807.62 685.394 812.608 685.394 818.761Z" fill="#4F4F4F"/>
<path fill-rule="evenodd" clip-rule="evenodd" d="M668.916 919.032H674.287V822.089H668.916V919.032Z" fill="#4F4F4F"/>
<path fill-rule="evenodd" clip-rule="evenodd" d="M668.917 919.031L606.363 927.398L602.326 925.057L668.917 909.308V919.031Z" fill="#4F4F4F"/>
<path fill-rule="evenodd" clip-rule="evenodd" d="M674.287 919.031L736.84 927.398L740.877 925.057L674.287 909.308V919.031Z" fill="#4F4F4F"/>
<path fill-rule="evenodd" clip-rule="evenodd" d="M667.341 930.279H675.862V916.233H667.341V930.279Z" fill="#4F4F4F"/>
<path fill-rule="evenodd" clip-rule="evenodd" d="M612.224 930.466C612.224 933.673 608.986 936.273 604.992 936.273C600.997 936.273 597.759 933.673 597.759 930.466C597.759 927.258 600.997 924.659 604.992 924.659C608.986 924.659 612.224 927.258 612.224 930.466Z" fill="#4F4F4F"/>
<path fill-rule="evenodd" clip-rule="evenodd" d="M678.834 930.466C678.834 933.673 675.596 936.273 671.601 936.273C667.607 936.273 664.369 933.673 664.369 930.466C664.369 927.258 667.607 924.659 671.601 924.659C675.596 924.659 678.834 927.258 678.834 930.466Z" fill="#4F4F4F"/>
<path fill-rule="evenodd" clip-rule="evenodd" d="M746.077 930.466C746.077 933.673 742.839 936.273 738.844 936.273C734.851 936.273 731.612 933.673 731.612 930.466C731.612 927.258 734.851 924.659 738.844 924.659C742.839 924.659 746.077 927.258 746.077 930.466Z" fill="#4F4F4F"/>
<path fill-rule="evenodd" clip-rule="evenodd" d="M758 817H585C585 796.013 598.784 779 615.787 779H727.213C744.216 779 758 796.013 758 817Z" fill="#DECA77"/>
<path fill-rule="evenodd" clip-rule="evenodd" d="M685.03 472.762C685.03 472.762 690.211 486.51 682.357 491.04C675.454 495.022 668.529 494.112 667.309 484.438C666.088 474.765 668.436 448.045 674.797 448.645C681.16 449.244 685.03 472.762 685.03 472.762Z" fill="#4A3D39"/>
<path fill-rule="evenodd" clip-rule="evenodd" d="M623.438 475.282L622.627 501.822C622.162 516.954 633.571 529.827 648.649 531.187C665.242 532.684 679.598 519.741 679.822 503.08L680.188 475.704L623.438 475.282Z" fill="#9E7D6C"/>
<path fill-rule="evenodd" clip-rule="evenodd" d="M650.853 502.346C650.853 502.346 634.909 504.797 624.595 498.782C612.214 491.559 614.352 465.839 614.29 457.484C614.181 442.824 620.284 434.799 620.284 434.799C620.284 434.799 626.211 422.198 651.832 421.205C677.454 420.212 679.291 443.967 679.716 454.949C680.14 465.929 678.166 486.887 671.562 492.837C663.592 500.019 650.853 502.346 650.853 502.346Z" fill="#B0927B"/>
<path fill-rule="evenodd" clip-rule="evenodd" d="M615.308 448.28C615.308 448.28 603.902 437.724 607.682 428.873C611.464 420.02 619.663 418.785 628.903 420.719C638.143 422.652 673.496 411.081 678.301 430.26C694.513 446.586 683.776 461.823 683.776 461.823C683.776 461.823 677.068 455 675.01 461.036C672.953 467.073 671.318 471.183 669.418 469.424C667.517 467.666 668.9 460.536 665.573 457.457C662.246 454.379 657.892 444.653 660.266 437.832C661.022 433.679 626.69 434.55 619.493 438.036C615.434 440.003 615.308 448.28 615.308 448.28Z" fill="#4A3D39"/>
<path d="M618.214 452.167C620.155 450.907 623.037 450.411 626.995 450.996C627.815 451.117 628.381 451.88 628.26 452.699C628.139 453.519 627.376 454.085 626.557 453.964C623.281 453.48 621.132 453.849 619.847 454.683C619.456 454.938 619.262 455.148 619.206 455.23L619.192 455.253C618.83 455.998 617.932 456.308 617.187 455.945C616.442 455.583 616.132 454.685 616.495 453.94C616.751 453.413 617.296 452.763 618.214 452.167Z" fill="#4A3D39"/>
<path d="M643.081 450.521C645.579 450.082 648.229 450.057 650.759 450.733C651.451 450.918 652.118 451.153 652.758 451.443C653.513 451.784 653.848 452.673 653.506 453.428C653.164 454.183 652.276 454.518 651.521 454.176C651.035 453.956 650.522 453.775 649.985 453.632C647.939 453.085 645.705 453.106 643.6 453.476C643.049 453.573 642.653 453.668 642.458 453.724C641.663 453.956 640.83 453.5 640.598 452.704C640.367 451.909 640.823 451.076 641.619 450.844L641.878 450.774C642.174 450.699 642.581 450.609 643.081 450.521Z" fill="#4A3D39"/>
<path d="M632.455 458.869C632.702 459.058 632.75 459.41 632.562 459.658L632.392 459.888C632.254 460.08 632.099 460.3 631.933 460.547C631.456 461.253 630.98 462.023 630.535 462.829C629.814 464.139 629.251 465.414 628.906 466.602C627.656 470.903 629.347 473.231 635.461 472.994C635.772 472.982 636.033 473.224 636.045 473.535C636.057 473.845 635.815 474.106 635.505 474.119C628.602 474.386 626.367 471.308 627.825 466.288C628.196 465.011 628.792 463.663 629.55 462.287C630.012 461.448 630.506 460.65 631.001 459.917L631.368 459.386L631.667 458.976C631.855 458.729 632.208 458.681 632.455 458.869Z" fill="#7C5B4D"/>
<path d="M646.493 460.754C648.326 460.685 649.823 462.322 649.901 464.352C649.917 464.766 649.594 465.114 649.18 465.13C648.766 465.146 648.418 464.823 648.402 464.409C648.354 463.157 647.495 462.217 646.551 462.253C645.605 462.29 644.82 463.293 644.868 464.547C644.884 464.961 644.561 465.309 644.148 465.325C643.734 465.341 643.385 465.018 643.369 464.604C643.291 462.573 644.658 460.825 646.493 460.754Z" fill="#4A3D39"/>
<path d="M622.702 461.675C624.535 461.606 626.032 463.243 626.11 465.273C626.126 465.687 625.804 466.036 625.39 466.051C624.976 466.067 624.627 465.745 624.611 465.331C624.563 464.078 623.704 463.139 622.759 463.174C621.813 463.211 621.029 464.214 621.078 465.467C621.094 465.881 620.772 466.23 620.358 466.246C619.944 466.263 619.595 465.94 619.579 465.526C619.499 463.495 620.866 461.747 622.702 461.675Z" fill="#4A3D39"/>
<path fill-rule="evenodd" clip-rule="evenodd" d="M622.229 480.551C622.229 480.551 622.541 474.058 631.522 473.147C639.28 472.36 644.3 473.915 647.258 479.3C650.216 484.684 633.191 479.845 633.191 479.845C633.191 479.845 620.171 486.587 622.229 480.551Z" fill="#4A3D39"/>
<path fill-rule="evenodd" clip-rule="evenodd" d="M687.926 468.169C687.22 474.406 683.083 479.061 678.686 478.563C674.288 478.065 671.296 472.605 672.002 466.366C672.707 460.129 676.844 455.475 681.242 455.973C685.64 456.471 688.633 461.931 687.926 468.169Z" fill="#9E7D6C"/>
<path d="M661.701 496.536C661.983 496.406 662.317 496.528 662.448 496.81C662.579 497.092 662.456 497.426 662.174 497.557C649.507 503.434 638.308 503.919 629.213 501.209C628.085 500.873 627.096 500.512 626.253 500.15L625.836 499.965C625.772 499.936 625.709 499.907 625.65 499.879L625.309 499.711C625.263 499.687 625.227 499.668 625.202 499.654C624.929 499.505 624.83 499.163 624.98 498.89C625.13 498.618 625.472 498.519 625.744 498.669L625.988 498.794C626.161 498.879 626.398 498.988 626.696 499.116C627.5 499.461 628.449 499.807 629.535 500.131C638.376 502.766 649.294 502.293 661.701 496.536Z" fill="#7C5B4D"/>
<path d="M636.806 494.359C637.085 494.374 637.306 494.589 637.336 494.859L637.336 495.014C637.328 495.327 637.337 495.738 637.38 496.21C637.444 496.907 637.569 497.593 637.768 498.229C638.303 499.937 639.271 501.014 640.796 501.258C641.103 501.307 641.311 501.596 641.262 501.902C641.213 502.209 640.925 502.418 640.618 502.369C638.608 502.047 637.345 500.642 636.694 498.565C636.469 497.846 636.33 497.083 636.26 496.311C636.221 495.879 636.207 495.491 636.209 495.168L636.215 494.892C636.231 494.582 636.496 494.343 636.806 494.359Z" fill="#7C5B4D"/>
<path d="M681.21 461.079C681.521 461.066 681.782 461.308 681.794 461.619C681.806 461.929 681.564 462.191 681.254 462.203L681.114 462.215C681 462.23 680.844 462.257 680.657 462.304C680.184 462.422 679.71 462.62 679.27 462.915C678.035 463.744 677.28 465.168 677.245 467.395L677.244 467.558L677.346 467.582C679.367 468.065 680.484 468.881 680.701 470.044L680.724 470.198C680.849 471.275 680.213 472.423 679.005 473.707C678.792 473.933 678.436 473.944 678.209 473.731C677.983 473.518 677.972 473.162 678.185 472.936C679.184 471.875 679.682 470.976 679.607 470.328C679.521 469.589 678.62 468.965 676.582 468.568C676.326 468.518 676.138 468.298 676.128 468.037C676.013 465.082 676.969 463.105 678.643 461.981C679.597 461.341 680.546 461.104 681.21 461.079Z" fill="#7C5B4D"/>
<path fill-rule="evenodd" clip-rule="evenodd" d="M542.354 888.565L544.861 919.191C544.861 919.191 531.412 922.573 518.708 921.148C496.978 918.708 502.717 924.229 476.851 926.419C454.067 928.348 439.246 917.158 449.261 912.352C478.094 898.518 491.003 886.438 491.003 886.438C491.003 886.438 496.796 852.676 511.103 849.351C533.581 844.128 542.354 888.565 542.354 888.565Z" fill="#E4EBF7"/>
<path fill-rule="evenodd" clip-rule="evenodd" d="M452.247 912.926C452.247 912.926 452.192 916.228 465.227 921.547C480.41 927.74 503.555 919.467 517.076 915.896C537.902 910.397 539.717 914.473 543.605 911.582C547.091 917.147 543.395 922.57 543.395 922.57C543.395 922.57 538.937 924.908 523.158 924.65C507.383 924.392 507.543 928.645 487.794 930.826C459.974 933.898 446.184 925.985 445.191 920.271C443.943 913.086 449.097 910.214 452.247 912.926Z" fill="#B0BEDC"/>
<path fill-rule="evenodd" clip-rule="evenodd" d="M464 768.866C462.479 748.019 477.569 729.641 498.313 727.071L580.532 716.891C604.957 713.865 626.936 731.904 628.735 756.45C630.523 780.848 611.636 801.825 587.185 802.602L504.379 805.23C483.346 805.898 465.532 789.854 464 768.866Z" fill="#8B587D"/>
<path fill-rule="evenodd" clip-rule="evenodd" d="M495.531 728.462C517.541 725.31 537.68 741.285 539.61 763.434C543.32 805.979 548.585 866.547 548.585 866.547C548.585 866.547 548.585 866.549 548.586 866.549C555.125 873.072 553.352 891.128 539.243 890.498C506.88 889.05 494.432 895.262 485.249 890.223C476.067 885.185 481.631 871.394 481.632 871.388C481.632 871.388 470.87 814.704 462.996 774.191C458.771 752.45 473.607 731.601 495.531 728.462Z" fill="#8B587D"/>
<path fill-rule="evenodd" clip-rule="evenodd" d="M632.237 917.953L634.013 948.631C634.013 948.631 620.486 951.691 607.822 949.961C586.154 947.003 591.76 952.66 565.849 954.232C543.025 955.615 528.476 944.075 538.604 939.509C567.76 926.366 580.954 914.6 580.954 914.6C580.954 914.6 592.352 880.327 606.734 877.343C629.33 872.659 632.237 917.953 632.237 917.953Z" fill="#E4EBF7"/>
<path fill-rule="evenodd" clip-rule="evenodd" d="M541.576 940.154C541.576 940.154 541.443 943.454 554.346 949.082C569.377 955.637 592.711 947.919 606.315 944.673C627.265 939.672 628.984 943.791 632.938 940.994C636.292 946.64 632.467 951.972 632.467 951.972C632.467 951.972 627.954 954.204 612.186 953.568C596.422 952.934 596.481 957.189 576.685 958.898C548.8 961.304 535.201 953.064 534.346 947.33C533.269 940.116 538.491 937.368 541.576 940.154Z" fill="#B0BEDC"/>
<path fill-rule="evenodd" clip-rule="evenodd" d="M608.742 737.173C630.963 737.318 648.539 756.026 647.283 778.211C644.718 823.583 640.913 890.591 640.913 890.591C640.913 890.591 640.845 883.595 640.913 890.593C641.004 899.828 641.994 915.565 628.127 912.893C601.719 907.807 586.512 915.734 578.175 909.391C569.841 903.049 573.98 885.466 573.983 885.46C573.983 885.46 571.544 821.686 569.672 777.67C568.728 755.485 586.538 737.03 608.742 737.173Z" fill="#8B587D"/>
<path fill-rule="evenodd" clip-rule="evenodd" d="M578.855 681.362C578.855 681.362 566.144 707.639 567.933 745.628C568.815 764.361 601.443 795.809 630.158 796.308C645.57 796.578 701.483 808.227 721.664 784.484C750.384 750.696 717.441 678.053 717.441 678.053C717.441 678.053 591.522 681.582 578.855 681.362Z" fill="#8B587D"/>
<path d="M603.074 763.348C603.453 763.329 603.781 763.594 603.849 763.957L603.861 764.059C603.87 764.231 603.971 764.638 604.26 765.253C604.771 766.342 605.669 767.576 607.053 768.922C611.097 772.857 618.276 776.826 629.367 780.547C633.169 781.822 637.38 783.048 642.018 784.217C642.42 784.318 642.663 784.726 642.562 785.127C642.461 785.529 642.053 785.773 641.652 785.671C636.977 784.493 632.729 783.257 628.89 781.969C617.602 778.182 610.23 774.107 606.007 769.997C604.497 768.528 603.493 767.148 602.902 765.891C602.53 765.098 602.382 764.5 602.363 764.136C602.342 763.722 602.66 763.369 603.074 763.348Z" fill="#3B4A7A"/>
<path d="M631.637 711.011C632.048 711.065 632.336 711.443 632.281 711.853L632.239 712.188C632.205 712.469 632.168 712.799 632.127 713.178L632.039 714.023C631.952 714.899 631.866 715.866 631.784 716.919C630.765 730.017 631.123 744.385 633.841 757.895C635.168 764.492 637.019 770.556 639.443 775.973C639.613 776.351 639.443 776.795 639.065 776.964C638.687 777.133 638.244 776.964 638.074 776.586C635.601 771.06 633.718 764.891 632.37 758.191C629.621 744.524 629.259 730.027 630.288 716.803L630.372 715.767C630.429 715.096 630.488 714.464 630.547 713.873L630.666 712.737L630.795 711.655C630.845 711.278 631.166 711.005 631.535 711.004L631.637 711.011Z" fill="#3B4A7A"/>
<path d="M726.168 698.334C726.562 698.206 726.985 698.422 727.113 698.816C727.241 699.21 727.025 699.633 726.631 699.761C700.558 708.225 673.718 712.569 646.81 713.499C626.334 714.207 607.19 712.91 590.077 710.315C585.515 709.623 581.425 708.885 577.849 708.143L577.141 707.995C576.158 707.787 575.269 707.59 574.476 707.407L573.028 707.062L572.529 706.935C572.128 706.83 571.889 706.419 571.995 706.019C572.1 705.618 572.511 705.379 572.911 705.485L573.822 705.711L574.815 705.946C575.468 706.096 576.188 706.257 576.973 706.425L577.452 706.527C581.164 707.313 585.465 708.098 590.302 708.832C607.328 711.414 626.38 712.704 646.758 712C673.533 711.075 700.236 706.753 726.168 698.334Z" fill="#3B4A7A"/>
<path d="M635.188 682.439C635.568 682.432 635.887 682.709 635.942 683.074L635.951 683.176L636.368 707.683C636.375 708.097 636.045 708.438 635.631 708.446C635.251 708.452 634.933 708.175 634.877 707.81L634.868 707.708L634.451 683.201C634.444 682.787 634.774 682.446 635.188 682.439Z" fill="#3B4A7A"/>
<path fill-rule="evenodd" clip-rule="evenodd" d="M572.148 782.282C568.498 762.016 581.413 742.457 601.485 737.852L680.459 719.737C703.013 714.563 725.365 729.113 729.76 751.832H729.762C734.122 774.374 719.08 796.09 696.442 799.928L616.557 813.475C595.705 817.01 575.896 803.096 572.148 782.282Z" fill="#8B587D"/>
<path d="M643.872 727.145C644.284 727.1 644.654 727.397 644.699 727.809C644.743 728.221 644.446 728.591 644.034 728.636C599.69 733.457 576.567 745.682 572.049 771.288L571.993 771.631C571.114 777.376 571.255 795.538 572.161 822.185L572.345 827.412C572.518 832.188 572.711 837.126 572.92 842.183L573 844.085C573.29 851.004 573.598 857.836 573.909 864.375L574.593 878.203C574.615 878.617 574.297 878.97 573.884 878.993C573.47 879.013 573.117 878.696 573.095 878.282L572.597 868.334L572.317 862.475C572.1 857.856 571.885 853.104 571.677 848.289L571.344 840.353C571.139 835.324 570.95 830.419 570.782 825.682L570.552 818.92C569.722 793.381 569.643 776.294 570.572 771.027C575.243 744.556 598.935 732.03 643.872 727.145Z" fill="#3B4A7A"/>
<path fill-rule="evenodd" clip-rule="evenodd" d="M565.812 618.734C565.812 618.734 537.937 671.103 571.725 689.687C596.07 703.077 717.996 693.629 724.33 686.871C739.389 670.808 728.82 651.704 730.786 616.224C732.58 583.872 758.511 553.208 740.238 535.955C717.432 519.483 700 515.079 683.907 511.484C670.015 508.38 661.468 531.596 648.009 531.756C636.837 531.89 631.623 510.359 621.561 513.149C606.864 517.224 589.464 516.527 568.345 528.353C568.345 528.353 561.541 555.765 570.016 591.447C570.016 591.447 564.28 604.485 565.812 618.734Z" fill="#E4EBF7"/>
<path fill-rule="evenodd" clip-rule="evenodd" d="M480.291 534.087C480.291 534.087 487.003 523.902 480.084 505.482C474.88 491.63 482.341 480.698 477.76 479.079C473.179 477.462 467.4 488.108 466.635 498.627C457.303 490.536 455.971 475.305 448.389 470.519C440.329 465.431 423.204 479.972 446.268 521.808C466.434 555.648 480.291 534.087 480.291 534.087Z" fill="#B69882"/>
<path d="M467.736 493.584C467.438 493.496 467.125 493.666 467.037 493.964C466.563 495.577 466.255 496.954 466.08 498.097L466.018 498.528C465.984 498.794 465.961 499.014 465.948 499.191L465.941 499.3L465.904 499.345C465.655 499.659 465.351 500.121 465.043 500.727L464.927 500.961C463.294 504.37 463.261 508.677 465.854 513.724C465.996 514.001 466.335 514.109 466.612 513.968C466.888 513.826 466.997 513.486 466.855 513.21C464.427 508.484 464.457 504.547 465.942 501.447C466.16 500.992 466.393 500.598 466.624 500.269C466.759 500.077 466.86 499.952 466.911 499.897C467.004 499.794 467.057 499.66 467.058 499.522L467.064 499.36C467.078 499.132 467.115 498.768 467.192 498.267C467.359 497.174 467.656 495.847 468.117 494.282C468.204 493.984 468.034 493.671 467.736 493.584Z" fill="#7C5B4D"/>
<path d="M436.099 480.712C435.788 480.725 435.547 480.987 435.561 481.297C435.574 481.608 435.836 481.849 436.146 481.836C437.543 481.777 438.438 482.598 438.973 484.096C439.164 484.63 439.291 485.21 439.365 485.79L439.4 486.11C439.409 486.206 439.416 486.292 439.42 486.366L439.427 486.55L439.465 486.747L439.805 487.605L440.521 489.379L440.719 489.862C441.679 492.197 442.679 494.532 443.669 496.713C444.046 497.543 444.414 498.335 444.773 499.085L445.041 499.64C446.298 502.228 447.394 504.199 448.293 505.425C448.796 506.11 449.423 506.786 450.237 507.545L450.552 507.834C451.199 508.42 453.674 510.513 453.659 510.5C457.965 514.218 459.914 517.151 460.028 521.512C460.036 521.823 460.295 522.068 460.605 522.06C460.916 522.052 461.161 521.793 461.153 521.483C461.032 516.853 459.024 513.718 454.737 509.948L454.315 509.582C453.89 509.222 451.87 507.51 451.307 507C450.388 506.168 449.714 505.459 449.2 504.759C448.351 503.602 447.282 501.679 446.053 499.148C445.615 498.247 445.16 497.277 444.693 496.248C443.71 494.081 442.715 491.758 441.76 489.435L441.191 488.038L440.55 486.429L440.544 486.311C440.536 486.18 440.523 486.02 440.503 485.838L440.481 485.648C440.397 484.993 440.253 484.336 440.032 483.717C439.375 481.876 438.167 480.72 436.323 480.708L436.099 480.712Z" fill="#7C5B4D"/>
<path d="M442.835 476.621C441.397 475.046 439.845 474.611 438.524 474.831L438.338 474.868C438.314 474.874 438.292 474.88 438.274 474.886C437.977 474.976 437.809 475.29 437.899 475.587C437.98 475.855 438.243 476.017 438.511 475.982L438.655 475.95L438.708 475.94C439.675 475.779 440.842 476.107 442.004 477.38C443.377 478.884 444.468 481.483 445.134 485.4C445.358 486.716 445.828 488.174 446.512 489.752C447.189 491.313 448.061 492.959 449.082 494.653C449.969 496.123 450.918 497.547 451.868 498.873L452.255 499.407C452.38 499.578 452.5 499.741 452.616 499.895L453.139 500.58C453.332 500.823 453.685 500.865 453.929 500.672C454.173 500.479 454.214 500.126 454.021 499.882L453.683 499.442L453.162 498.742C453.04 498.575 452.913 498.4 452.782 498.217C451.849 496.915 450.916 495.514 450.046 494.072C449.048 492.418 448.199 490.815 447.544 489.305C446.893 487.803 446.45 486.429 446.243 485.211C445.543 481.099 444.371 478.304 442.835 476.621Z" fill="#7C5B4D"/>
<path d="M443.605 470.355C443.296 470.323 443.019 470.548 442.988 470.857C442.956 471.166 443.181 471.442 443.49 471.474L443.654 471.499C443.818 471.53 444.048 471.589 444.326 471.685C444.986 471.913 445.648 472.271 446.267 472.786C447.705 473.984 448.695 475.839 449.025 478.516L449.064 478.87C449.312 481.374 450.975 485.543 453.451 490.431C454.36 492.223 455.32 493.988 456.109 495.338L456.471 495.949C456.657 496.256 456.816 496.508 456.938 496.689L457.061 496.864C457.098 496.914 457.131 496.956 457.163 496.991L457.253 497.081C457.274 497.098 457.301 497.116 457.368 497.159L457.478 497.208C457.62 497.262 457.691 497.224 458.078 497.015L458.18 496.786C458.207 496.718 458.215 496.683 458.213 496.645L458.191 496.5C458.187 496.483 458.183 496.469 458.176 496.442C458.141 496.323 458.07 496.224 457.979 496.153L457.901 496.102L457.871 496.06C457.736 495.86 457.546 495.556 457.319 495.176L457.08 494.771C456.303 493.44 455.353 491.695 454.455 489.922L454.012 489.038C451.916 484.802 450.496 481.18 450.209 478.981L450.184 478.759C449.871 475.602 448.719 473.364 446.987 471.922C445.734 470.879 444.476 470.444 443.605 470.355Z" fill="#7C5B4D"/>
<path d="M461.662 495.038C461.509 494.768 461.165 494.673 460.895 494.827L460.447 495.092L460.316 495.172C459.862 495.45 459.356 495.774 458.812 496.14C457.258 497.186 455.703 498.362 454.251 499.645C452.146 501.503 450.435 503.427 449.256 505.39C449.096 505.656 449.182 506.002 449.449 506.162C449.715 506.322 450.061 506.235 450.221 505.969C451.332 504.117 452.97 502.276 454.995 500.488C456.408 499.241 457.924 498.093 459.44 497.074C459.97 496.717 460.463 496.402 460.904 496.131L461.45 495.805C461.721 495.652 461.815 495.309 461.662 495.038Z" fill="#7C5B4D"/>
<path fill-rule="evenodd" clip-rule="evenodd" d="M452.738 540.652L474.557 521.878C480.245 516.985 488.777 517.438 493.914 522.905L555.234 588.173C566.871 601.7 565.341 622.099 551.814 633.737C538.289 645.374 517.889 643.844 506.25 630.319L450.864 559.945C446.225 554.05 447.05 545.545 452.738 540.652Z" fill="#E4EBF7"/>
<path fill-rule="evenodd" clip-rule="evenodd" d="M507.982 633.628C494.986 621.4 494.364 600.954 506.592 587.958L560.586 530.574C572.814 517.578 593.262 516.955 606.256 529.183H606.258C619.252 541.411 619.875 561.859 607.647 574.854L553.653 632.238C541.425 645.234 520.978 645.856 507.982 633.628Z" fill="#E4EBF7"/>
<path fill-rule="evenodd" clip-rule="evenodd" d="M620.737 520.244C620.737 520.244 624.903 573.738 635.461 598.656C664.744 544.596 683.757 512.052 684.594 511.935L647.005 529.251L620.737 520.244Z" fill="white"/>
<path fill-rule="evenodd" clip-rule="evenodd" d="M631.115 536.402L644.207 526.688L658.566 538.091L650.771 549.146L633.771 549.242L631.115 536.402Z" fill="#253368"/>
<path fill-rule="evenodd" clip-rule="evenodd" d="M626.721 563.829L633.95 548.343L650.966 549.072L655.172 562.053L636.026 600.345L626.721 563.829Z" fill="#253368"/>
<path fill-rule="evenodd" clip-rule="evenodd" d="M623.073 541.218L645.599 527.14L623.355 511.09L619.695 514.75L623.073 541.218Z" fill="white"/>
<path fill-rule="evenodd" clip-rule="evenodd" d="M645.598 527.14L665.308 541.78L685.017 511.936L680.793 506.868L645.598 527.14Z" fill="white"/>
<path fill-rule="evenodd" clip-rule="evenodd" d="M622.245 542.314L644.753 526.717L622.857 509.041L615.849 515.828L622.245 542.314Z" fill="white"/>
<path d="M615.02 515.588L622.813 508.041L646.004 526.763L621.774 543.554L615.02 515.588ZM622.903 510.041L616.68 516.069L622.718 541.074L643.503 526.671L622.903 510.041Z" fill="#E4EBF7"/>
<path fill-rule="evenodd" clip-rule="evenodd" d="M644.754 526.718L665.748 544.004L685.598 512.328L680.291 504.537L644.754 526.718Z" fill="white"/>
<path d="M643.472 526.633L680.505 503.519L686.493 512.311L665.93 545.125L643.472 526.633ZM680.077 505.555L646.036 526.801L665.566 542.882L684.702 512.344L680.077 505.555Z" fill="#E4EBF7"/>
<path d="M635.519 598.471C635.14 598.442 634.806 598.7 634.729 599.061L634.714 599.162L632.465 628.755L632.099 629.797L631.82 630.621C631.58 631.337 631.322 632.122 631.052 632.973C629.969 636.374 628.886 640.118 627.875 644.095C625.757 652.431 624.242 660.647 623.593 668.343C622.658 679.436 623.586 688.726 626.793 695.634C626.967 696.009 627.413 696.172 627.789 695.998C628.164 695.824 628.328 695.378 628.153 695.002C625.076 688.375 624.173 679.326 625.088 668.469C625.729 660.865 627.23 652.727 629.329 644.465C630.241 640.877 631.212 637.48 632.188 634.357L632.481 633.428C632.749 632.585 633.004 631.807 633.242 631.099L633.743 629.637L633.909 629.17L633.952 628.97L636.21 599.276C636.241 598.863 635.932 598.502 635.519 598.471Z" fill="#96A7CA"/>
<path d="M569.516 585.069C569.137 585.037 568.801 585.292 568.722 585.653L568.706 585.754L565.926 619.337L565.619 619.853L565.522 620.02C565.129 620.697 564.692 621.483 564.222 622.37C562.881 624.902 561.541 627.743 560.29 630.827C555.921 641.599 553.715 652.512 554.854 662.728C556.174 674.575 561.954 684.552 572.996 691.999C573.081 692.056 573.176 692.095 573.276 692.114L574.403 692.312L575.516 692.494C576.175 692.6 576.901 692.711 577.692 692.828L579.077 693.028C582.376 693.495 586.152 693.957 590.384 694.393L592.702 694.625C628.784 698.132 672.441 697.616 721.343 690.429C721.753 690.368 722.037 689.987 721.976 689.577C721.916 689.168 721.535 688.884 721.125 688.944C671.826 696.19 627.879 696.638 591.69 693.018L590.538 692.901C586.024 692.436 582.033 691.941 578.592 691.444L577.911 691.344C576.655 691.159 575.568 690.987 574.652 690.832L573.709 690.668L573.338 690.416C563.159 683.374 557.77 674.102 556.407 663.095L556.344 662.562C555.238 652.632 557.396 641.952 561.68 631.391C562.911 628.356 564.23 625.561 565.548 623.072L565.997 622.236C566.216 621.835 566.425 621.46 566.624 621.112L567.075 620.336C567.172 620.173 567.246 620.053 567.294 619.976C567.336 619.908 567.367 619.834 567.386 619.757L567.405 619.64L570.201 585.878C570.235 585.465 569.928 585.103 569.516 585.069Z" fill="#96A7CA"/>
<path d="M686.47 511.731C686.14 511.481 685.669 511.547 685.42 511.877C680.298 518.663 673.418 529.8 665.205 544.326C663.698 546.992 662.155 549.756 660.581 552.609C655.176 562.403 649.615 572.847 644.17 583.336L641.623 588.261C640.72 590.015 639.853 591.704 639.029 593.32L636.93 597.447L636.214 598.864L635.932 597.877C633.72 590.06 631.393 580.736 628.994 570.216L628.737 569.084C626.201 557.899 623.711 545.964 621.36 533.982L620.302 528.54C619.79 525.881 619.31 523.352 618.867 520.978L617.816 515.275L617.683 514.542C617.611 514.134 617.221 513.862 616.813 513.935C616.405 514.008 616.134 514.398 616.207 514.805L617.066 519.501L617.907 523.991C618.377 526.48 618.882 529.116 619.419 531.872C621.754 543.87 624.234 555.869 626.767 567.166L627.274 569.416C629.684 580.044 632.022 589.487 634.25 597.439L634.489 598.286C634.763 599.255 635.035 600.2 635.305 601.12C635.497 601.774 636.391 601.853 636.696 601.244L638.35 597.964L640.78 593.188C641.897 591.004 643.086 588.692 644.337 586.273L646.668 581.783C651.734 572.062 656.882 562.416 661.894 553.334C662.942 551.435 663.976 549.575 664.995 547.758L666.511 545.064C674.694 530.592 681.546 519.5 686.617 512.781C686.867 512.45 686.801 511.98 686.47 511.731Z" fill="#96A7CA"/>
<path d="M663.636 634.07C645.201 630.525 629.605 630.5 617.275 632.589C615.69 632.858 614.289 633.144 613.077 633.432L612.631 633.54C612.355 633.609 612.1 633.675 611.869 633.737L611.222 633.919C611.13 633.946 611.062 633.967 611.017 633.982C610.623 634.109 610.407 634.531 610.534 634.926C610.661 635.32 611.083 635.536 611.478 635.409L611.848 635.299L612.26 635.185C612.408 635.145 612.566 635.104 612.733 635.061L612.992 634.996C614.266 634.68 615.78 634.364 617.526 634.068C629.683 632.008 645.099 632.033 663.352 635.543C663.759 635.621 664.152 635.355 664.231 634.948C664.309 634.541 664.042 634.148 663.636 634.07Z" fill="#96A7CA"/>
<path d="M620.635 623.963C620.616 624.377 620.937 624.727 621.351 624.745L624.033 624.858L626.786 624.966C628.039 625.014 629.327 625.061 630.634 625.106L632.951 625.183C634.095 625.22 635.218 625.254 636.313 625.284L639.866 625.374C646.053 625.512 650.445 625.504 652.429 625.305C652.841 625.264 653.142 624.896 653.101 624.484C653.059 624.072 652.692 623.771 652.28 623.812L651.967 623.84C649.647 624.026 644.512 624.001 637.439 623.814L635.253 623.753C634.142 623.721 633.005 623.685 631.849 623.646L628.744 623.538L621.417 623.247C621.003 623.228 620.653 623.549 620.635 623.963Z" fill="#96A7CA"/>
<path d="M567.384 558.352C566.97 558.333 566.619 558.654 566.6 559.067C566.123 569.496 566.63 579.087 568.411 587.181C568.5 587.585 568.9 587.841 569.305 587.752C569.709 587.663 569.965 587.263 569.876 586.858C568.128 578.912 567.627 569.445 568.099 559.136C568.118 558.722 567.797 558.371 567.384 558.352Z" fill="#96A7CA"/>
<path fill-rule="evenodd" clip-rule="evenodd" d="M748.247 669.786C730.847 673.738 713.537 662.836 709.584 645.435L692.133 568.599C688.181 551.199 699.083 533.889 716.484 529.938C733.884 525.985 751.194 536.887 755.147 554.287L772.598 631.123C776.55 648.523 765.648 665.833 748.247 669.786Z" fill="#E4EBF7"/>
<path d="M710.069 540.655C709.866 540.29 709.405 540.159 709.04 540.361C708.584 540.614 707.821 541.138 706.853 541.968C705.258 543.337 703.668 545.087 702.186 547.254C694.484 558.524 692.653 575.834 700.238 600.373C700.361 600.773 700.785 600.996 701.184 600.873C701.583 600.75 701.807 600.326 701.684 599.927C694.228 575.807 696.009 558.975 703.436 548.108C704.84 546.053 706.342 544.401 707.839 543.117C708.272 542.745 708.678 542.427 709.049 542.162L709.268 542.009C709.519 541.837 709.692 541.731 709.775 541.685C710.14 541.482 710.272 541.021 710.069 540.655Z" fill="#96A7CA"/>
<path fill-rule="evenodd" clip-rule="evenodd" d="M602.868 638.673L581.164 570.78C580.806 569.661 579.774 568.896 578.598 568.881L517.738 568.056C515.848 568.031 514.504 569.888 515.118 571.674L537.774 637.764C538.138 638.828 539.116 639.558 540.238 639.608L600.147 642.236C602.046 642.318 603.447 640.484 602.868 638.673Z" fill="#7B8DAF"/>
<path fill-rule="evenodd" clip-rule="evenodd" d="M599.66 637.845L578.335 571.135C577.901 569.781 576.65 568.854 575.228 568.834L513.617 568C512.294 567.984 511.354 569.281 511.783 570.532L534.754 637.534C535.157 638.712 536.24 639.522 537.482 639.576L596.363 642.157C598.664 642.259 600.362 640.038 599.66 637.845Z" fill="#253368"/>
<path fill-rule="evenodd" clip-rule="evenodd" d="M569.993 575.263C569.304 576.03 569.552 577.375 570.546 578.271C571.541 579.165 572.906 579.268 573.594 578.503C574.284 577.737 574.037 576.39 573.041 575.496C572.046 574.602 570.681 574.497 569.993 575.263Z" fill="#51342D"/>
<path fill-rule="evenodd" clip-rule="evenodd" d="M570.81 576.064C570.453 576.462 570.581 577.161 571.097 577.626C571.614 578.091 572.322 578.143 572.681 577.746C573.038 577.348 572.909 576.649 572.393 576.186C571.877 575.721 571.167 575.667 570.81 576.064Z" fill="#E1E7F3"/>
<path fill-rule="evenodd" clip-rule="evenodd" d="M600.394 638.317C600.394 638.317 627.26 644.719 635.402 634.612C642.776 625.459 632.371 614.468 632.371 614.468C632.371 614.468 623.258 606.803 611.204 601.219C603.304 597.559 589.325 588.364 586.364 591.904C582.506 596.519 598.333 603.589 598.201 607.964C597.931 616.829 571.859 608.329 566.891 609.22C557.182 610.961 568.108 630.883 600.394 638.317Z" fill="#B69882"/>
<path d="M566.488 613.354C566.213 613.21 565.873 613.318 565.73 613.593C565.587 613.869 565.694 614.208 565.97 614.352C567.602 615.2 569.331 615.951 571.145 616.611C575.449 618.176 580.05 619.171 584.679 619.71C586.353 619.904 587.932 620.027 589.382 620.091L589.99 620.114C590.471 620.131 590.89 620.138 591.239 620.14L591.708 620.138C592.018 620.131 592.265 619.874 592.259 619.564C592.253 619.284 592.044 619.056 591.776 619.018L591.678 619.013L591.029 619.013C590.664 619.009 590.231 618.999 589.736 618.979L589.431 618.967C588.008 618.904 586.456 618.784 584.809 618.592C580.261 618.063 575.743 617.086 571.53 615.554C569.76 614.91 568.076 614.179 566.488 613.354Z" fill="#7C5B4D"/>
<path d="M568.3 619.988C568.031 619.833 567.687 619.925 567.531 620.194C567.376 620.463 567.468 620.807 567.737 620.962L568.062 621.14L568.315 621.272C568.783 621.513 569.337 621.781 569.976 622.068C571.796 622.887 573.934 623.705 576.376 624.468C581.434 626.048 587.115 627.182 593.368 627.678C593.677 627.702 593.948 627.471 593.973 627.162C593.997 626.852 593.766 626.581 593.457 626.556C587.29 626.067 581.691 624.95 576.711 623.394C574.313 622.645 572.217 621.843 570.438 621.042L569.845 620.77C569.563 620.637 569.302 620.511 569.062 620.39L568.497 620.097C568.409 620.049 568.343 620.013 568.3 619.988Z" fill="#7C5B4D"/>
<path d="M578.162 628.602C577.869 628.501 577.548 628.657 577.447 628.95C577.345 629.244 577.501 629.564 577.795 629.666C583.146 631.515 587.898 632.722 591.996 633.411C593.275 633.626 594.409 633.776 595.393 633.873L595.755 633.907C596.036 633.931 596.289 633.95 596.513 633.963L596.939 633.984C596.997 633.986 597.04 633.987 597.071 633.988C597.382 633.992 597.637 633.743 597.641 633.433C597.644 633.122 597.396 632.867 597.085 632.863L596.784 632.852L596.357 632.826C596.201 632.815 596.034 632.802 595.853 632.786L595.135 632.715C594.264 632.621 593.279 632.486 592.183 632.302C588.145 631.623 583.454 630.432 578.162 628.602Z" fill="#7C5B4D"/>
<path fill-rule="evenodd" clip-rule="evenodd" d="M619.139 641.404L623.641 610.78C624.815 602.799 632.366 597.114 640.774 597.883L741.122 607.075C761.014 609.739 774.875 627.288 772.085 646.272C769.294 665.256 750.907 678.486 731.014 675.822L631.891 658.303C623.587 656.836 617.966 649.387 619.139 641.404Z" fill="#E4EBF7"/>
<path d="M638.577 599.78C630.679 599.045 623.605 604.472 622.387 612.145L622.34 612.461L618.449 640.979C617.393 648.712 622.634 655.921 630.373 657.486L630.692 657.547L724.007 674.658C724.418 674.733 724.812 674.461 724.888 674.05C724.957 673.673 724.734 673.31 724.38 673.194L724.28 673.169L630.963 656.058C623.945 654.791 619.132 648.406 619.91 641.494L619.949 641.184L623.84 612.666C624.786 605.739 631.044 600.764 638.114 601.261L638.432 601.286L712.068 608.666C712.484 608.708 712.855 608.405 712.896 607.989C712.935 607.608 712.683 607.264 712.32 607.178L712.219 607.161L638.577 599.78Z" fill="#96A7CA"/>
</svg>
