<svg width="1099" height="1310" viewBox="0 0 1099 1310" fill="none" xmlns="http://www.w3.org/2000/svg">
<ellipse cx="550.037" cy="533.521" rx="357.926" ry="347.179" fill="black" fill-opacity="0.4"/>
<path fill-rule="evenodd" clip-rule="evenodd" d="M348.006 489.831C348.107 489.338 348.83 489.275 349.028 489.743C350.774 493.871 355.03 505.033 350.32 505.811C345.006 506.688 347.08 494.336 348.006 489.831Z" fill="white"/>
<path fill-rule="evenodd" clip-rule="evenodd" d="M307.4 529.758C308.074 509.498 307.172 501.622 307.172 501.622L334.525 507.302L337.119 528.636C338.075 536.49 331.913 543.526 323.516 544.167C314.636 544.848 307.122 538.113 307.4 529.758Z" fill="#F4B784"/>
<path fill-rule="evenodd" clip-rule="evenodd" d="M317.477 463.236C317.477 463.236 319.984 455.159 326.034 458.542C330.357 460.96 329.079 458.807 329.826 456.624C332.599 448.519 335.808 466.815 349.424 469.89C350.469 479.723 353.22 512.132 330.638 515.023C321.855 516.147 310.767 511.807 305.233 500.143C301.889 493.095 303.585 485.492 306.557 483.799C316.346 478.217 315.743 473.244 317.477 463.236Z" fill="#FFC999"/>
<path d="M336.94 470.589C337.285 470.658 337.518 470.951 337.503 471.271L337.488 471.379L336.35 476.438L336.464 477.327C336.576 478.145 336.723 479.103 336.909 480.191L337.169 481.658C337.674 484.401 338.33 487.436 339.156 490.723C339.234 491.031 339.07 491.347 338.764 491.48L337.262 492.141L334.607 493.329L332.113 494.461C331.761 494.623 331.335 494.486 331.163 494.155C330.991 493.824 331.137 493.425 331.49 493.264L333.088 492.536C333.991 492.127 334.9 491.718 335.783 491.324L337.642 490.501L337.551 490.132C336.749 486.863 336.116 483.851 335.634 481.136L335.507 480.402L335.355 479.49C335.26 478.903 335.177 478.36 335.106 477.862L334.963 476.792L334.926 476.47L334.937 476.267L336.098 471.104C336.171 470.78 336.484 470.561 336.825 470.575L336.94 470.589Z" fill="#DD936F"/>
<path d="M346.222 477.13C346.727 477.052 347.203 477.372 347.287 477.845L347.312 478.009C347.321 478.077 347.33 478.157 347.34 478.249C347.431 479.124 347.412 480.069 347.202 480.979C346.705 483.137 345.232 484.517 342.678 484.472C340.705 484.436 339.473 483.241 338.88 481.418C338.606 480.577 338.498 479.734 338.485 479.03L338.486 478.694C338.503 478.215 338.931 477.839 339.442 477.855C339.911 477.87 340.286 478.209 340.332 478.634L340.337 478.752L340.337 478.998C340.348 479.556 340.436 480.25 340.651 480.91C341.035 482.09 341.68 482.716 342.714 482.735C344.281 482.763 345.067 482.027 345.392 480.612C345.555 479.904 345.571 479.128 345.497 478.417L345.46 478.128C345.377 477.655 345.718 477.208 346.222 477.13Z" fill="#253368"/>
<path d="M325.552 478.465C326.059 478.402 326.524 478.736 326.592 479.211L326.614 479.41L326.623 479.503C326.694 480.374 326.647 481.342 326.39 482.278C325.812 484.377 324.301 485.709 321.767 485.664C319.8 485.629 318.559 484.453 317.945 482.654C317.651 481.794 317.536 480.936 317.521 480.24L317.52 479.963C317.532 479.483 317.956 479.103 318.467 479.114C318.936 479.125 319.315 479.46 319.366 479.885L319.371 480.003C319.364 480.572 319.45 481.367 319.708 482.124C320.105 483.288 320.76 483.908 321.802 483.927C323.389 483.955 324.217 483.225 324.597 481.844C324.795 481.122 324.833 480.333 324.776 479.635L324.757 479.441C324.689 478.966 325.045 478.529 325.552 478.465Z" fill="#253368"/>
<path d="M323.322 496.56C323.456 496.097 323.966 495.824 324.459 495.951C328.334 496.944 331.971 497.069 335.026 496.688L335.414 496.636C335.769 496.585 336.023 496.539 336.166 496.507C336.664 496.395 337.163 496.683 337.282 497.15C337.401 497.617 337.094 498.085 336.596 498.197L336.371 498.243C336.11 498.292 335.74 498.352 335.27 498.41C331.986 498.82 328.106 498.687 323.971 497.627C323.477 497.5 323.187 497.023 323.322 496.56Z" fill="#C44343"/>
<path d="M349.474 469.289C349.574 469.759 349.249 470.217 348.748 470.311L347.71 470.5L347.063 470.615C345.77 470.843 344.415 471.07 343.061 471.283L341.511 471.519L340.763 471.628C339.758 471.771 338.821 471.893 337.965 471.991C337.458 472.049 336.996 471.71 336.934 471.233C336.872 470.757 337.234 470.324 337.741 470.266C338.41 470.19 339.132 470.098 339.901 469.992L340.485 469.91C340.971 469.841 341.47 469.767 341.981 469.689L342.755 469.569C343.761 469.411 344.768 469.245 345.749 469.076L347.05 468.849L348.385 468.607C348.886 468.513 349.374 468.818 349.474 469.289Z" fill="#4A3D39"/>
<path d="M315.075 470.368C318.297 470.743 321.54 470.988 324.642 471.128L326.196 471.189C326.524 471.2 326.841 471.209 327.145 471.217L328.465 471.242C328.547 471.243 328.616 471.243 328.67 471.244C329.182 471.245 329.595 471.635 329.594 472.115C329.592 472.594 329.176 472.982 328.665 472.981L327.969 472.973L326.622 472.941C325.979 472.922 325.288 472.896 324.553 472.863C321.408 472.721 318.119 472.473 314.846 472.092C314.339 472.033 313.979 471.599 314.042 471.123C314.1 470.686 314.493 470.366 314.949 470.361L315.075 470.368Z" fill="#4A3D39"/>
<path d="M332.454 501.457C332.845 501.44 333.178 501.723 333.196 502.091C333.213 502.422 332.97 502.708 332.635 502.774L332.521 502.788L330.049 502.897C329.657 502.915 329.325 502.631 329.306 502.263C329.289 501.932 329.533 501.647 329.867 501.58L329.982 501.566L332.454 501.457Z" fill="#DD936F"/>
<path fill-rule="evenodd" clip-rule="evenodd" d="M291.293 489.702C288.862 481.482 297.42 481.501 297.42 481.501C297.42 481.501 298.125 489.79 300.925 497.078C292.363 497.323 291.293 489.702 291.293 489.702Z" fill="#FFC999"/>
<path fill-rule="evenodd" clip-rule="evenodd" d="M296.486 495.263C296.587 494.77 297.31 494.707 297.508 495.174C299.254 499.302 303.51 510.464 298.8 511.243C293.486 512.12 295.56 499.768 296.486 495.263Z" fill="white"/>
<path fill-rule="evenodd" clip-rule="evenodd" d="M385.616 652.365C385.616 652.365 388.962 589.673 388.388 577.927C387.001 549.558 369.893 544.235 356.839 554.842C341.105 567.625 353.581 656.17 353.581 656.17C353.581 656.17 356.071 666.154 369.986 667.336C386.433 668.731 385.616 652.365 385.616 652.365Z" fill="#FFC999"/>
<path fill-rule="evenodd" clip-rule="evenodd" d="M388.281 606.828C388.309 600.942 396.159 549.905 369.456 549.127C349.076 548.533 346.804 565.609 349.592 607.87L388.281 606.828Z" fill="#8B587D"/>
<path fill-rule="evenodd" clip-rule="evenodd" d="M501.548 648.017C501.548 648.017 483.142 655.875 472.48 653.84C463.763 652.178 468.916 643.934 468.916 643.934C468.916 643.934 478.574 630.706 486.261 624.628C491.3 620.642 499.672 611.728 502.539 613.599C506.275 616.04 496.128 623.842 497.099 626.815C499.063 632.838 516.403 622.138 520.206 621.82C527.642 621.196 523.637 636.886 501.548 648.017Z" fill="#FFC999"/>
<path d="M521.131 624.38C521.419 624.131 521.868 624.147 522.134 624.417C522.4 624.688 522.383 625.109 522.095 625.359C520.52 626.724 518.738 627.972 516.789 629.107C514.066 630.693 511.152 631.986 508.24 633.009C507.424 633.295 506.654 633.544 505.943 633.756L505.421 633.909C504.907 634.055 504.537 634.151 504.335 634.199C503.954 634.288 503.568 634.072 503.473 633.715C503.377 633.358 503.608 632.996 503.989 632.906L504.458 632.787C504.613 632.745 504.798 632.694 505.008 632.634C505.832 632.399 506.751 632.109 507.742 631.761C510.573 630.767 513.403 629.511 516.04 627.975C517.916 626.882 519.626 625.685 521.131 624.38Z" fill="#DD936F"/>
<path d="M521.122 629.272C521.398 629.01 521.848 629.008 522.126 629.267C522.405 629.526 522.407 629.948 522.131 630.209L521.819 630.489C521.714 630.58 521.589 630.686 521.444 630.806C520.887 631.267 520.22 631.78 519.443 632.33C517.231 633.898 514.578 635.463 511.482 636.922C509.347 637.929 507.071 638.85 504.653 639.667C504.284 639.792 503.877 639.612 503.745 639.266C503.612 638.92 503.803 638.538 504.172 638.413C506.536 637.614 508.76 636.714 510.844 635.732C513.861 634.31 516.442 632.787 518.587 631.267C519.21 630.825 519.758 630.411 520.23 630.031L520.747 629.603C520.927 629.45 521.052 629.338 521.122 629.272Z" fill="#DD936F"/>
<path d="M515.681 636.984C516.005 636.777 516.447 636.855 516.668 637.159C516.889 637.463 516.806 637.877 516.482 638.085C512.932 640.361 509.689 642.083 506.82 643.328C505.955 643.703 505.177 644.012 504.49 644.259L504.154 644.378C503.688 644.54 503.363 644.639 503.189 644.686C502.812 644.788 502.418 644.583 502.31 644.229C502.202 643.876 502.421 643.507 502.798 643.405L503.184 643.289C503.272 643.26 503.373 643.227 503.485 643.189L503.661 643.128C504.392 642.875 505.249 642.541 506.224 642.118C509.022 640.904 512.196 639.219 515.681 636.984Z" fill="#DD936F"/>
<path fill-rule="evenodd" clip-rule="evenodd" d="M483.141 636.272C483.141 636.272 388.039 637.202 375.784 639.656C345.394 645.744 351.278 672.928 373.051 673.445C402.016 674.133 485.666 653.008 485.666 653.008L483.141 636.272Z" fill="#FFC999"/>
<path fill-rule="evenodd" clip-rule="evenodd" d="M293.158 911.15C293.323 910.764 247.806 1017.2 244.014 1023.7C233.664 1041.44 230.07 1042.75 237.404 1052.65C239.283 1055.18 243.979 1055.83 245.545 1062.26C249.837 1079.84 262.296 1094.96 268.334 1089.23C273.387 1083.56 258.83 1049.69 263.879 1035.19C269.127 1020.12 344.591 913.031 346.652 899.305C349.677 879.145 340.212 838.39 293.158 911.15Z" fill="#FFC999"/>
<path fill-rule="evenodd" clip-rule="evenodd" d="M229.567 1051.58C229.567 1051.58 231.919 1040.26 240.921 1029.56C240.921 1029.56 245.163 1041.23 247.909 1053.03C251.08 1066.67 252.888 1068.21 252.888 1068.21C261.829 1076.92 267.656 1072.38 267.656 1072.38C267.656 1072.38 269.374 1082.51 275.977 1095.87C281.89 1107.84 242.51 1089.34 242.589 1077.47C242.669 1065.61 238.843 1056.68 238.843 1056.68L227.703 1068.97L224.086 1066.98L229.567 1051.58Z" fill="#253368"/>
<path fill-rule="evenodd" clip-rule="evenodd" d="M301.185 859.983L242.607 1004.2L307.478 1031.03C307.478 1031.03 337.564 956.734 365.763 880.259C365.763 880.259 382.135 842.814 348.788 831.17C315.442 819.523 301.185 859.983 301.185 859.983Z" fill="#A3B5D6"/>
<path fill-rule="evenodd" clip-rule="evenodd" d="M383.853 837.044C398.612 765.041 394.938 706.603 389.791 690.74C389.791 690.74 377.563 667.797 351.112 680.073C320.272 694.39 320.268 719.468 320.268 719.468L311.342 832.685C310.957 841.96 308.948 870.69 346.892 874.233C384.242 877.721 383.546 838.543 383.853 837.044Z" fill="#A3B5D6"/>
<path fill-rule="evenodd" clip-rule="evenodd" d="M309.777 650.238C324.356 653.573 361.054 651.327 365.385 649.586C369.715 647.844 365.733 640.128 365.733 640.128C365.733 640.128 381.815 608.532 382.434 599.823C383.052 591.115 374.778 571.425 374.778 571.425C374.778 571.425 376.935 554.378 371.987 552.08C365.81 549.212 349.47 543.246 344.677 540.923C339.881 538.6 339.079 527.327 339.079 527.327L306.67 525.444C306.67 525.444 304.866 534.068 302.955 537.056C299.245 542.86 288.424 534.363 279.12 542.733C258.94 560.886 293.885 611.671 306.486 637.903C306.486 637.903 302.065 644.279 309.777 650.238Z" fill="#8B587D"/>
<path d="M307.15 539.905L338.086 543.407C338.593 543.465 338.955 543.897 338.894 544.374C338.838 544.81 338.446 545.132 337.99 545.138L337.864 545.132L306.928 541.63C306.42 541.572 306.059 541.139 306.12 540.663C306.176 540.227 306.568 539.905 307.024 539.899L307.15 539.905Z" fill="#253368"/>
<path d="M307.022 544.848C307.14 544.422 307.575 544.153 308.028 544.205L308.151 544.227L324.508 548.229C325.003 548.35 325.299 548.825 325.17 549.289C325.052 549.715 324.617 549.984 324.164 549.933L324.041 549.91L307.684 545.908C307.189 545.787 306.893 545.312 307.022 544.848Z" fill="#253368"/>
<path d="M307.253 588.595C307.6 588.243 308.186 588.221 308.562 588.546L308.813 588.748C308.994 588.886 309.244 589.065 309.561 589.276C310.424 589.85 311.451 590.426 312.638 590.965C318.12 593.453 324.82 594.291 332.665 592.499L333.303 592.348C336.084 591.667 342.57 591.673 351.787 592.178C354.066 592.303 356.454 592.456 358.91 592.631L360.392 592.739C362.711 592.912 364.974 593.095 367.116 593.279L370.067 593.541L371.326 593.659C371.835 593.708 372.204 594.135 372.152 594.612C372.1 595.089 371.645 595.436 371.136 595.387L368.004 595.101L364.774 594.826C363.302 594.705 361.786 594.586 360.245 594.471L357.311 594.262C355.861 594.162 354.438 594.071 353.052 593.99L350.47 593.848C342.323 593.432 336.452 593.442 333.948 593.988L333.771 594.029C325.206 596.125 317.843 595.258 311.832 592.529C310.55 591.947 309.435 591.321 308.491 590.694L308.093 590.422C307.729 590.167 307.466 589.961 307.306 589.823C306.93 589.497 306.907 588.948 307.253 588.595Z" fill="#253368"/>
<path d="M373.357 558.63C373.823 558.582 374.246 558.867 374.356 559.282L374.379 559.398L375.529 569.228L375.815 569.909C376.025 570.417 376.255 570.98 376.501 571.592L376.687 572.06C377.589 574.331 378.491 576.74 379.334 579.182C380.012 581.149 380.623 583.056 381.15 584.876C382.525 589.62 383.267 593.529 383.205 596.356C383.155 598.643 382.635 601.37 381.723 604.452C381.111 606.523 380.334 608.708 379.432 610.958C378.612 613.002 377.734 614.989 376.856 616.839L376.328 617.936L375.866 618.864C375.783 619.028 375.72 619.15 375.68 619.227C375.455 619.658 374.901 619.836 374.441 619.625C373.982 619.414 373.793 618.893 374.018 618.463L374.33 617.847C374.532 617.445 374.751 616.997 374.986 616.508L375.165 616.133C376.029 614.311 376.893 612.356 377.699 610.346C378.583 608.142 379.343 606.005 379.939 603.988C380.813 601.033 381.308 598.44 381.354 596.32C381.411 593.699 380.696 589.928 379.364 585.332C378.845 583.541 378.242 581.659 377.572 579.717C376.878 577.704 376.142 575.712 375.399 573.802L374.952 572.667C374.702 572.037 374.467 571.455 374.249 570.926L373.764 569.766L373.703 569.536L372.538 559.588C372.482 559.111 372.849 558.682 373.357 558.63Z" fill="#253368"/>
<path fill-rule="evenodd" clip-rule="evenodd" d="M392.919 708.676C392.919 708.676 389.238 670.615 370.65 657.66L306.169 658.075C306.169 658.075 275.446 678.348 282.397 725.307L338.525 737.953L356.426 743.568C356.426 743.568 384.926 726.612 392.919 708.676Z" fill="#E2E9F4"/>
<path fill-rule="evenodd" clip-rule="evenodd" d="M304.828 658.877L371.37 658.781L365.81 648.998L305.86 649.454L304.828 658.877Z" fill="#E2E9F4"/>
<path d="M350.586 659.65C350.961 659.572 351.332 659.793 351.415 660.145C356.131 680.083 356.999 700.115 355.662 717.494L355.573 718.594C355.498 719.484 355.421 720.305 355.343 721.053L355.203 722.313L355.129 722.911C355.08 723.268 354.732 723.521 354.352 723.475C353.972 723.429 353.703 723.103 353.751 722.746L353.852 721.919L353.915 721.362C354.038 720.223 354.161 718.898 354.277 717.4C355.605 700.137 354.742 680.225 350.059 660.427C349.976 660.076 350.212 659.728 350.586 659.65Z" fill="#A3B5D6"/>
<path d="M371.018 658.129C371.401 658.126 371.715 658.415 371.718 658.775C371.721 659.099 371.472 659.37 371.143 659.423L371.03 659.432L305.052 659.973C304.668 659.976 304.355 659.687 304.351 659.327C304.348 659.003 304.597 658.732 304.927 658.679L305.039 658.67L371.018 658.129Z" fill="#A3B5D6"/>
<path fill-rule="evenodd" clip-rule="evenodd" d="M336.522 932.474C336.412 932.04 366.267 1052.04 367.198 1059.95C369.74 1081.55 367.443 1084.78 380.4 1089.25C383.718 1090.4 388.275 1088.25 393.876 1093C409.205 1105.99 430.1 1112.09 431.651 1103.56C432.373 1095.65 397.314 1074.26 392.231 1058.57C386.951 1042.28 383.024 904.386 375.821 891.113C365.241 871.62 330.139 841.226 336.522 932.474Z" fill="#FFC999"/>
<path fill-rule="evenodd" clip-rule="evenodd" d="M372.8 1092.84C372.8 1092.84 367.432 1081.52 368.326 1066.89C368.326 1066.89 379.726 1074.72 389.899 1083.52C401.645 1093.68 404.249 1093.99 404.249 1093.99C417.837 1096.49 419.985 1089.12 419.985 1089.12C419.985 1089.12 428.152 1097.05 442.742 1104.99C455.807 1112.1 408.992 1118.59 401.269 1108.1C393.548 1097.62 384.315 1091.97 384.315 1091.97L382.582 1109.23L378.09 1109.57L372.8 1092.84Z" fill="#253368"/>
<path fill-rule="evenodd" clip-rule="evenodd" d="M319.155 866.599L346.067 1030.49L421.85 1023.23C421.85 1023.23 407.898 938.84 390.951 853.356C390.951 853.356 385.046 810.224 347.309 815.964C309.571 821.704 319.155 866.599 319.155 866.599Z" fill="#E2E9F4"/>
<path fill-rule="evenodd" clip-rule="evenodd" d="M382.925 825.099C364.163 757.256 352.139 705.187 341.83 691.719C341.83 691.719 316.796 672.626 298.038 683.403C272.492 698.078 283.092 729.221 283.092 729.221L318.891 860.966C321.705 869.866 328.665 892.534 365.809 884.445C402.374 876.483 383.334 826.577 382.925 825.099Z" fill="#E2E9F4"/>
<path fill-rule="evenodd" clip-rule="evenodd" d="M274.097 641.358C274.097 641.358 295.988 582.041 298.936 570.615C306.055 543.014 291.213 533.416 275.521 540.174C256.605 548.322 242.206 636.61 242.206 636.61C242.206 636.61 241.622 646.849 254.63 651.632C270.005 657.285 274.097 641.358 274.097 641.358Z" fill="#FFC999"/>
<path fill-rule="evenodd" clip-rule="evenodd" d="M290.221 598.335C292.002 592.692 314.743 545.747 289.338 537.997C269.947 532.081 262.677 547.88 252.766 589.188L290.221 598.335Z" fill="#8B587D"/>
<path d="M297.131 578.034C297.307 577.584 297.838 577.352 298.318 577.516C298.759 577.667 299.003 578.099 298.906 578.517L298.871 578.63L291.09 598.633C290.942 599.016 290.534 599.245 290.114 599.198L289.988 599.176L252.532 590.029C252.038 589.908 251.741 589.434 251.87 588.97C251.988 588.544 252.422 588.275 252.875 588.326L252.999 588.348L289.64 597.295L297.131 578.034Z" fill="#253368"/>
<path fill-rule="evenodd" clip-rule="evenodd" d="M495.761 659.023L372.542 653.761C367.857 653.56 364.719 649.161 366.306 645.021L397.04 564.917C398.075 562.221 400.86 560.471 403.909 560.602L527.129 565.864C531.813 566.065 534.953 570.464 533.365 574.604L502.631 654.71C501.596 657.404 498.811 659.154 495.761 659.023Z" fill="#253368"/>
<path fill-rule="evenodd" clip-rule="evenodd" d="M386.702 667.59C386.702 667.59 366.689 670.306 357.057 665.558C349.184 661.675 356.587 655.111 356.587 655.111C356.587 655.111 369.801 644.945 378.992 641.124C385.017 638.619 395.712 632.257 397.906 634.806C400.767 638.129 388.702 642.959 388.746 646.067C388.837 652.365 408.675 646.639 412.42 647.332C419.745 648.683 411.226 662.698 386.702 667.59Z" fill="#FFC999"/>
<path d="M412.547 650.033C412.898 649.868 413.325 650.002 413.5 650.332C413.675 650.661 413.532 651.061 413.181 651.225C411.97 651.792 410.692 652.293 409.355 652.731C406.147 653.784 402.723 654.445 399.265 654.793C397.18 655.003 395.382 655.074 394.015 655.063L393.494 655.054C393.103 655.041 392.797 654.731 392.811 654.364C392.826 653.996 393.156 653.709 393.547 653.723L393.71 653.727L394.367 653.732C395.637 653.728 397.257 653.656 399.114 653.469C402.471 653.131 405.791 652.489 408.886 651.473C410.168 651.053 411.392 650.573 412.547 650.033Z" fill="#DD936F"/>
<path d="M411.081 654.726C411.424 654.548 411.856 654.664 412.046 654.986C412.237 655.307 412.113 655.713 411.77 655.891L411.456 656.045L411.338 656.101C410.994 656.261 410.587 656.438 410.118 656.629C408.787 657.17 407.224 657.71 405.442 658.214C401.504 659.326 397.065 660.101 392.171 660.388C391.779 660.411 391.442 660.132 391.418 659.765C391.393 659.398 391.691 659.081 392.082 659.058C396.864 658.778 401.196 658.022 405.033 656.938C406.761 656.449 408.272 655.927 409.554 655.406C409.888 655.27 410.189 655.141 410.454 655.022L410.904 654.814C410.987 654.774 411.046 654.745 411.081 654.726Z" fill="#DD936F"/>
<path d="M403.559 660.704C403.932 660.59 404.333 660.781 404.454 661.131C404.576 661.48 404.373 661.857 404 661.971C399.938 663.217 396.33 664.019 393.215 664.464L392.487 664.563C391.208 664.727 390.238 664.801 389.592 664.819L389.272 664.824C388.877 664.822 388.561 664.522 388.562 664.155C388.564 663.823 388.823 663.55 389.16 663.499L389.276 663.491L389.57 663.485C389.739 663.478 389.959 663.467 390.228 663.449C391.012 663.395 391.938 663.298 393.001 663.146C396.039 662.713 399.571 661.928 403.559 660.704Z" fill="#DD936F"/>
<path fill-rule="evenodd" clip-rule="evenodd" d="M372.528 651.486C372.528 651.486 280.94 627.433 268.442 626.577C237.451 624.451 235.001 652.096 255.751 658.302C283.358 666.561 369.965 668.215 369.965 668.215L372.528 651.486Z" fill="#FFC999"/>
<path fill-rule="evenodd" clip-rule="evenodd" d="M324 448.024C324.196 446.912 324.506 446.181 324.978 446.122C330.674 445.413 348.64 444.704 354.775 467.428C355.339 469.141 355.541 470.59 355.744 472.054C356.174 475.139 356.613 478.289 360.473 484.115C368.025 495.516 361.763 500.995 357.318 504.885C355.187 506.749 353.473 508.248 353.899 509.858C355.214 514.83 354.775 521.397 345.572 526.369C343.128 527.689 340.126 528.509 337.037 529L335.397 513.876C336.593 512.949 337.629 512.004 338.453 511.091C349.189 499.197 349.189 485.882 349.189 485.882C351.741 462.657 341.961 450.336 324 448.024Z" fill="#5C4E4A"/>
<path fill-rule="evenodd" clip-rule="evenodd" d="M301.998 476.85C297.688 481.125 297.267 489 297.267 489C297.267 489 287.012 446 324.852 446C362.32 446 351.571 488.859 351.571 488.859C351.571 488.859 351.026 481.614 348.082 477.779L346.26 461.31L329.056 461.865L304.14 461.34L301.998 476.85Z" fill="#5C4E4A"/>
<path fill-rule="evenodd" clip-rule="evenodd" d="M328 463.188C328 463.188 336.911 461.536 341.81 466.938C346.742 472.376 344.321 478.937 346.652 480.437C350.599 487.749 348.984 489.064 348.625 496C352.571 485.124 352.211 477.438 351.674 470.688C351.306 466.065 350.316 457.231 340.99 456.106C331.663 454.981 328 463.188 328 463.188Z" fill="#5C4E4A"/>
<path fill-rule="evenodd" clip-rule="evenodd" d="M328.738 463.189C328.738 463.189 329.815 453.998 330 448.083C330.037 446.913 324.043 444.794 322.23 444.387C310.76 441.799 306.775 452.844 296.702 458.433C286.713 463.979 289.999 466.746 287.452 473.221C285.416 478.397 281.162 476.745 278.202 483.573C275.797 489.117 280.82 492.532 277.831 496.51C273.393 502.425 271.173 504.274 272.283 509.45C273.763 514.625 285.233 519.431 285.233 519.431L287.082 512.408C287.082 512.408 285.936 519.474 288.562 521.649C291.063 523.718 297.812 527.565 306.69 532C307.802 529.044 310.478 521.857 307.094 515.313C302.793 506.996 306.727 506.6 307.802 498.728C308.911 490.596 304.47 486.899 311.501 481.353C317.139 476.906 316.121 473.543 317.42 468.784C319.64 460.652 328.738 463.189 328.738 463.189" fill="#4A3D39"/>
<path d="M713.086 606.364H606.901C603.579 606.364 600.886 609.186 600.886 612.666V784.667C600.886 788.148 603.579 790.969 606.901 790.969H738.962C742.284 790.969 744.977 788.148 744.977 784.667V640.039L713.086 606.364Z" fill="#5A5A28"/>
<path d="M713.086 606.102L713.136 633.75C713.136 637.231 715.829 640.053 719.151 640.053H744.977" fill="#E2E9F4"/>
<path d="M664.98 623.218H559.038C555.716 623.218 553.023 626.039 553.023 629.52V801.521C553.023 805.001 555.716 807.823 559.038 807.823H691.35C694.672 807.823 697.364 805.001 697.364 801.521V660.042H674.252C670.932 660.042 664.98 657.221 664.98 653.739V623.218Z" fill="#E2E9F4"/>
<path d="M596.76 640.005H572.932C570.655 640.005 568.808 641.947 568.808 644.341V669.282C568.808 671.677 570.655 673.618 572.932 673.618H596.76C599.038 673.618 600.884 671.677 600.884 669.282V644.341C600.884 641.947 599.038 640.005 596.76 640.005Z" fill="#909044"/>
<path d="M679.576 690.424H570.306C569.479 690.424 568.808 691.129 568.808 691.998V697.253C568.808 698.122 569.479 698.827 570.306 698.827H679.576C680.403 698.827 681.073 698.122 681.073 697.253V691.998C681.073 691.129 680.403 690.424 679.576 690.424Z" fill="#5A5A28"/>
<path d="M679.576 715.604H570.306C569.479 715.604 568.808 716.309 568.808 717.179V722.433C568.808 723.302 569.479 724.007 570.306 724.007H679.576C680.403 724.007 681.073 723.302 681.073 722.433V717.179C681.073 716.309 680.403 715.604 679.576 715.604Z" fill="#909044"/>
<path d="M679.576 740.813H570.306C569.479 740.813 568.808 741.518 568.808 742.388V747.642C568.808 748.512 569.479 749.216 570.306 749.216H679.576C680.403 749.216 681.073 748.512 681.073 747.642V742.388C681.073 741.518 680.403 740.813 679.576 740.813Z" fill="#DECA77"/>
<path d="M664.98 623.218V653.739C664.98 657.22 667.673 660.042 670.994 660.042H697.364" fill="white"/>
<path fill-rule="evenodd" clip-rule="evenodd" d="M531.399 370.228C525.241 344.267 499.647 285.16 535.762 276.678C561.242 270.695 575.213 303.029 586 351.978L531.399 370.228Z" fill="#DECA77"/>
<path fill-rule="evenodd" clip-rule="evenodd" d="M396.734 367.008C402.696 341.002 429.642 282.592 391.668 273.496C366.216 267.398 352.415 300.143 342 349.172L396.734 367.008Z" fill="#DECA77"/>
<path fill-rule="evenodd" clip-rule="evenodd" d="M398.381 442.035C383.416 469.23 405.032 474.225 405.032 474.225C440.516 476.64 530.288 475.89 530.288 475.89C549.132 462.015 533.14 443.907 533.14 443.907C533.14 443.907 565.43 288.669 553.17 279.9C541.864 271.812 521.757 265.443 495.229 261C494.491 262.652 487.055 275.554 462.224 275.857C435.044 276.189 429.2 263.977 428.215 261.836C405.956 264.601 393.846 267.431 378.706 273.495C374.075 275.349 373.993 339.918 398.381 442.035Z" fill="#DECA77"/>
<path d="M499.989 272.521C500.357 272.27 500.859 272.365 501.11 272.733C501.362 273.101 501.267 273.604 500.899 273.855C480.84 287.567 459.579 288.647 439.995 282.266C437.555 281.471 435.368 280.618 433.465 279.765L432.703 279.416C432.462 279.303 432.235 279.194 432.022 279.09L431.269 278.709C431.194 278.669 431.134 278.637 431.09 278.613C430.7 278.397 430.558 277.906 430.773 277.515C430.988 277.125 431.479 276.983 431.869 277.198L432.14 277.342L432.435 277.492C432.914 277.732 433.478 278.001 434.124 278.291C435.977 279.121 438.11 279.953 440.494 280.73C459.642 286.969 480.395 285.914 499.989 272.521Z" fill="#5A5A28"/>
<path d="M377.947 340.624C378.341 340.548 378.723 340.773 378.857 341.138L378.892 341.264L398.272 441.934C398.304 442.1 398.283 442.271 398.213 442.424L398.049 442.798C397.96 443.006 397.852 443.268 397.727 443.58L397.631 443.823C397.189 444.949 396.746 446.205 396.333 447.556C395.173 451.35 394.47 455.137 394.45 458.651C394.403 467.111 398.238 472.605 407.296 474.037C407.736 474.107 408.036 474.52 407.967 474.961C407.898 475.401 407.485 475.702 407.045 475.633C397.128 474.065 392.786 467.843 392.837 458.642C392.858 454.95 393.588 451.016 394.79 447.083C395.216 445.69 395.673 444.395 396.13 443.232L396.362 442.653L396.639 441.99L377.308 341.57C377.232 341.176 377.456 340.793 377.821 340.659L377.947 340.624Z" fill="#5A5A28"/>
<path d="M550.994 336.902C551.389 336.968 551.669 337.312 551.668 337.701L551.657 337.832L533.989 443.719L534.066 443.835C534.221 444.07 534.388 444.333 534.566 444.623L534.747 444.921C535.447 446.089 536.147 447.398 536.8 448.82C539.106 453.841 540.263 458.939 539.633 463.739C539.076 467.983 537.126 471.736 533.593 474.832C533.258 475.126 532.748 475.092 532.455 474.756C532.161 474.42 532.195 473.91 532.53 473.616C535.763 470.783 537.527 467.389 538.033 463.529C538.618 459.079 537.525 454.264 535.334 449.495C534.707 448.129 534.035 446.872 533.364 445.753L533.027 445.202C532.919 445.03 532.816 444.87 532.719 444.723L532.521 444.428C532.506 444.406 532.493 444.388 532.483 444.374C532.385 444.234 532.333 444.068 532.335 443.9L532.346 443.773L550.065 337.566C550.132 337.17 550.475 336.889 550.863 336.891L550.994 336.902Z" fill="#5A5A28"/>
<path fill-rule="evenodd" clip-rule="evenodd" d="M460.547 338.032C460.547 350.097 450.757 359.877 438.679 359.877C426.602 359.877 416.811 350.097 416.811 338.032C416.811 325.967 426.602 316.187 438.679 316.187C450.757 316.187 460.547 325.967 460.547 338.032Z" fill="#F5F5D1"/>
<path d="M507.736 334.583H453.642V389.77H507.736V334.583Z" fill="#5A5A28"/>
<path fill-rule="evenodd" clip-rule="evenodd" d="M442.708 350.679L469.755 398.968H415.66L442.708 350.679Z" fill="#909044"/>
<path d="M765.154 419.045L793.168 447.967L654.078 447.967L681.943 419.045L765.154 419.045Z" fill="#A3B5D6"/>
<path d="M681.943 419.045L681.943 447.967L654.078 447.967L681.943 419.045Z" fill="#5A5A28"/>
<path d="M765.154 419.045L765.154 447.946L793.168 447.967L765.154 419.045Z" fill="#5A5A28"/>
<path d="M705.391 535.488L723.011 530.49L727.508 546.346C728.898 551.248 726.08 556.34 721.214 557.721C716.347 559.101 711.275 556.246 709.885 551.344L705.388 535.489L705.391 535.488Z" fill="#253368"/>
<path d="M650.984 302.528C650.634 301.291 649.331 300.577 648.075 300.933C646.819 301.289 646.086 302.581 646.436 303.818L648.036 309.456C648.386 310.693 649.689 311.407 650.945 311.051C652.201 310.694 652.934 309.403 652.583 308.166L650.984 302.528Z" fill="#253368"/>
<path d="M644.725 338.928L671.443 331.35L727.088 527.54C728.405 532.182 725.628 537.035 720.887 538.38L711.337 541.089C706.596 542.433 701.686 539.76 700.369 535.118L644.725 338.928Z" fill="#AFAF63"/>
<path d="M654.129 308.088L671.443 331.35L644.725 338.928L646.818 310.184C646.861 309.573 647.298 309.048 647.907 308.876L652.514 307.569C653.117 307.391 653.764 307.599 654.129 308.088Z" fill="#CCD7EE"/>
<path d="M724.53 518.521L697.811 526.099L699.086 530.596L725.805 523.018L724.53 518.521Z" fill="white"/>
<path d="M722.833 484.387L715.443 486.483L724.211 517.397L731.601 515.301L722.833 484.387Z" fill="#253368"/>
<path d="M717.416 452.294C716.921 450.548 715.12 449.53 713.393 450.019C711.666 450.509 710.668 452.322 711.163 454.068L733.282 532.056C733.778 533.802 735.579 534.82 737.306 534.331C739.033 533.841 740.031 532.028 739.536 530.282L717.416 452.294Z" fill="#A3B5D6"/>
<g clip-path="url(#clip0)">
<path d="M794.491 325.191L786.124 322.38C784.993 322 784.385 320.776 784.764 319.645L788.328 309.04C788.655 308.065 789.627 307.457 790.647 307.588L799.569 308.739C800.212 308.82 800.783 309.185 801.128 309.733C801.472 310.281 801.552 310.954 801.346 311.568L797.225 323.832C796.845 324.963 795.621 325.571 794.491 325.191Z" fill="#5A5A28"/>
<path d="M798.36 353.362L767.027 342.833L722.436 475.54L753.769 486.069L798.36 353.362Z" fill="#AFAF63"/>
<path d="M728.559 457.316L759.892 467.844L745.72 510.023C744.488 513.689 740.517 515.663 736.851 514.431L718.794 508.363C715.128 507.131 713.155 503.161 714.387 499.494L728.559 457.316Z" fill="#253368"/>
<path d="M798.36 353.362L767.027 342.833L763.123 354.453L794.456 364.982L798.36 353.362Z" fill="#AFAF63"/>
<path d="M800.744 346.267L798.36 353.362L767.027 342.834L769.428 335.686L784.99 317.379L798.444 321.9L800.744 346.267Z" fill="#CCD7EE"/>
<path d="M800.676 346.296L769.343 335.768L766.941 342.915L798.274 353.444L800.676 346.296Z" fill="#E2E9F4"/>
<path d="M755.971 479.341L724.638 468.812L722.236 475.96L753.569 486.488L755.971 479.341Z" fill="#E2E9F4"/>
</g>
<path d="M701 339.156H736V553.125C736 558.027 731.956 562 726.968 562H710.032C705.044 562 701 558.027 701 553.125V339.156Z" fill="#E8E8A7"/>
<path d="M725.73 304.787H712.245L701 339.178H735.996L725.73 304.787Z" fill="#E2E9F4"/>
<path d="M718.191 290.48L712.667 304.809H725.462L719.595 290.465C719.48 290.182 719.199 289.997 718.888 290C718.577 290.003 718.3 290.194 718.191 290.48Z" fill="#253368"/>
<path d="M654.444 483.28L793.101 483.28L793.101 576.46C793.101 580.483 790.772 583.744 787.898 583.744L659.647 583.744C656.774 583.744 654.444 580.483 654.444 576.46L654.444 483.28Z" fill="#5A5A28"/>
<path d="M654.089 447.967L640.559 489.64C640.044 491.144 640.117 492.911 640.751 494.323C641.385 495.734 642.492 496.591 643.683 496.593L803.356 496.593C804.573 496.593 805.701 495.7 806.328 494.24C806.955 492.779 806.989 490.966 806.419 489.461L793.168 447.967L654.089 447.967Z" fill="#E2E9F4"/>
<defs>
<clipPath id="clip0">
<rect width="249" height="249" fill="white" transform="translate(687.31 253) rotate(18.5731)"/>
</clipPath>
</defs>
</svg>
