<?xml version="1.0" encoding="UTF-8" standalone="no"?>
<svg
   xmlns:dc="http://purl.org/dc/elements/1.1/"
   xmlns:cc="http://creativecommons.org/ns#"
   xmlns:rdf="http://www.w3.org/1999/02/22-rdf-syntax-ns#"
   xmlns:svg="http://www.w3.org/2000/svg"
   xmlns="http://www.w3.org/2000/svg"
   xmlns:sodipodi="http://sodipodi.sourceforge.net/DTD/sodipodi-0.dtd"
   xmlns:inkscape="http://www.inkscape.org/namespaces/inkscape"
   version="1.1"
   id="Layer_1"
   x="0px"
   y="0px"
   viewBox="0 0 432.66998 169.39"
   xml:space="preserve"
   sodipodi:docname="Logo_Color_Stacked.svg"
   width="432.66998"
   height="169.39"
   inkscape:version="1.0.1 (3bc2e813f5, 2020-09-07)"><metadata
   id="metadata272"><rdf:RDF><cc:Work
       rdf:about=""><dc:format>image/svg+xml</dc:format><dc:type
         rdf:resource="http://purl.org/dc/dcmitype/StillImage" /><dc:title></dc:title></cc:Work></rdf:RDF></metadata><defs
   id="defs270" /><sodipodi:namedview
   pagecolor="#ffffff"
   bordercolor="#666666"
   borderopacity="1"
   objecttolerance="10"
   gridtolerance="10"
   guidetolerance="10"
   inkscape:pageopacity="0"
   inkscape:pageshadow="2"
   inkscape:window-width="2560"
   inkscape:window-height="1016"
   id="namedview268"
   showgrid="false"
   fit-margin-top="0"
   fit-margin-left="0"
   fit-margin-right="0"
   fit-margin-bottom="0"
   inkscape:zoom="1.3333333"
   inkscape:cx="206.50999"
   inkscape:cy="110.38"
   inkscape:window-x="0"
   inkscape:window-y="27"
   inkscape:window-maximized="1"
   inkscape:current-layer="Layer_1" />
<style
   type="text/css"
   id="style159">
	.st0{fill:#FFFFFF;}
	.st1{fill:#8B587D;}
	.st2{fill:#909044;}
	.st3{fill:#DECA77;}
</style>
<g
   id="g177"
   transform="translate(-189.49001,-195.62)">
	<path
   class="st0"
   d="m 227.52,302.67 c -1.13,1.49 -2.37,2.7 -3.74,3.6 -1.37,0.91 -2.79,1.6 -4.29,2.08 -1.5,0.48 -3.01,0.8 -4.55,0.96 -1.54,0.16 -3.02,0.24 -4.45,0.24 -0.78,0 -1.77,-0.03 -2.96,-0.1 -1.19,-0.07 -2.45,-0.23 -3.77,-0.48 -1.32,-0.25 -2.68,-0.63 -4.06,-1.12 -1.39,-0.49 -2.69,-1.18 -3.9,-2.06 -1.73,-1.25 -3.06,-2.83 -3.96,-4.72 -0.91,-1.89 -1.37,-3.95 -1.37,-6.16 0,-0.99 0.11,-2.05 0.33,-3.18 0.22,-1.13 0.61,-2.26 1.17,-3.38 0.56,-1.12 1.32,-2.19 2.27,-3.22 0.95,-1.03 2.15,-1.93 3.61,-2.7 1.45,-0.77 3.19,-1.39 5.2,-1.86 2.02,-0.47 4.37,-0.7 7.05,-0.7 3.08,0 5.64,0.25 7.7,0.76 2.06,0.51 3.75,1.13 5.07,1.88 1.32,0.75 2.35,1.55 3.09,2.4 0.74,0.85 1.37,1.61 1.89,2.28 l -4.36,1.4 c -0.43,-1.17 -1.11,-2.17 -2.05,-3 -0.93,-0.83 -1.87,-1.47 -2.83,-1.92 -0.78,-0.35 -1.57,-0.62 -2.37,-0.82 -0.8,-0.2 -1.58,-0.35 -2.34,-0.44 -0.76,-0.09 -1.45,-0.15 -2.08,-0.16 -0.63,-0.01 -1.14,-0.02 -1.53,-0.02 -2.47,0 -4.6,0.25 -6.4,0.74 -1.8,0.49 -3.43,1.35 -4.91,2.58 -1.6,1.36 -2.66,2.81 -3.19,4.36 -0.52,1.55 -0.78,3.08 -0.78,4.6 0,0.48 0.04,1.11 0.13,1.88 0.09,0.77 0.26,1.6 0.52,2.46 0.26,0.87 0.64,1.74 1.14,2.62 0.5,0.88 1.18,1.67 2.05,2.36 0.91,0.75 1.89,1.34 2.96,1.78 1.06,0.44 2.15,0.77 3.25,1 1.11,0.23 2.17,0.37 3.19,0.44 1.02,0.07 1.94,0.1 2.76,0.1 1.13,0 2.31,-0.07 3.54,-0.2 1.24,-0.13 2.46,-0.47 3.67,-1 0.82,-0.35 1.77,-0.92 2.83,-1.72 1.06,-0.8 1.87,-1.83 2.44,-3.08 z"
   id="path161" />
	<path
   class="st0"
   d="m 287.97,294.51 c 0,1.09 -0.14,2.18 -0.42,3.24 -0.28,1.07 -0.66,2.09 -1.14,3.06 -0.48,0.97 -1.08,1.89 -1.82,2.76 -0.74,0.87 -1.56,1.63 -2.47,2.3 -1.13,0.8 -2.3,1.45 -3.51,1.94 -1.21,0.49 -2.43,0.87 -3.64,1.12 -1.21,0.25 -2.38,0.42 -3.51,0.5 -1.13,0.08 -2.17,0.12 -3.12,0.12 -2.86,0 -5.45,-0.3 -7.77,-0.88 -2.32,-0.59 -4.43,-1.57 -6.34,-2.96 -1.65,-1.17 -3.02,-2.68 -4.13,-4.52 -1.1,-1.84 -1.66,-4.01 -1.66,-6.52 0,-1.95 0.4,-3.81 1.2,-5.6 0.8,-1.79 2.02,-3.36 3.64,-4.72 1.63,-1.36 3.68,-2.45 6.18,-3.26 2.49,-0.81 5.45,-1.22 8.87,-1.22 3.81,0 6.98,0.46 9.49,1.38 2.51,0.92 4.53,2.1 6.05,3.54 1.52,1.44 2.58,3.02 3.19,4.74 0.61,1.72 0.91,3.38 0.91,4.98 z m -4.68,0.04 c 0,-1.28 -0.23,-2.65 -0.68,-4.1 -0.45,-1.45 -1.26,-2.79 -2.4,-4 -1.15,-1.21 -2.69,-2.23 -4.62,-3.04 -1.93,-0.81 -4.35,-1.22 -7.25,-1.22 -2.95,0 -5.4,0.4 -7.35,1.2 -1.95,0.8 -3.51,1.81 -4.68,3.04 -1.17,1.23 -2,2.57 -2.5,4.04 -0.5,1.47 -0.75,2.88 -0.75,4.24 0,1.31 0.24,2.69 0.72,4.16 0.48,1.47 1.29,2.81 2.44,4.04 1.15,1.23 2.69,2.24 4.61,3.04 1.93,0.8 4.37,1.2 7.31,1.2 2.34,0 4.34,-0.26 6.01,-0.78 1.67,-0.52 3.07,-1.18 4.19,-1.98 1.13,-0.8 2.01,-1.69 2.67,-2.68 0.65,-0.98 1.15,-1.95 1.49,-2.88 0.35,-0.93 0.56,-1.79 0.65,-2.56 0.1,-0.77 0.14,-1.34 0.14,-1.72 z"
   id="path163" />
	<path
   class="st0"
   d="m 346.61,308.84 h -4.29 l -26.98,-24.41 v 24.41 h -4.23 v -28.25 h 4.23 l 27.37,24.17 -0.39,-24.17 h 4.29 z"
   id="path165" />
	<path
   class="st0"
   d="m 386.32,308.84 h -4.42 v -25.89 h -14.43 v -2.36 h 33.35 v 2.36 h -14.5 z"
   id="path167" />
	<path
   class="st0"
   d="m 456.72,308.84 h -5.46 L 436.8,296.32 h -10.76 v 12.52 h -4.42 v -28.29 h 12.87 c 2,0 3.65,0.01 4.97,0.02 1.32,0.01 2.45,0.04 3.38,0.08 0.93,0.04 1.73,0.1 2.4,0.18 0.67,0.08 1.38,0.2 2.11,0.36 1.86,0.4 3.34,0.95 4.42,1.66 1.08,0.71 1.89,1.43 2.44,2.18 0.54,0.75 0.88,1.45 1.01,2.12 0.13,0.67 0.2,1.17 0.2,1.52 0,0.75 -0.12,1.41 -0.36,1.98 -0.24,0.57 -0.53,1.08 -0.88,1.52 -0.35,0.44 -0.72,0.82 -1.1,1.14 -0.39,0.32 -0.76,0.59 -1.11,0.8 -0.82,0.48 -1.7,0.86 -2.63,1.14 -0.93,0.28 -1.85,0.49 -2.76,0.64 -0.91,0.15 -1.78,0.25 -2.6,0.3 -0.82,0.05 -1.54,0.09 -2.14,0.12 z m -30.68,-14.85 h 10.76 c 1.51,0 2.93,-0.01 4.25,-0.04 1.32,-0.03 2.48,-0.11 3.47,-0.24 1.21,-0.16 2.24,-0.41 3.08,-0.74 0.84,-0.33 1.52,-0.73 2.04,-1.2 0.52,-0.47 0.9,-0.98 1.13,-1.54 0.24,-0.56 0.36,-1.12 0.36,-1.68 0,-1.39 -0.55,-2.56 -1.65,-3.52 -1.1,-0.96 -2.78,-1.59 -5.02,-1.88 -0.35,-0.03 -0.66,-0.05 -0.94,-0.08 -0.28,-0.03 -0.68,-0.05 -1.2,-0.06 -0.52,-0.01 -1.21,-0.02 -2.08,-0.04 -0.86,-0.01 -2.01,-0.02 -3.44,-0.02 h -10.76 z"
   id="path169" />
	<path
   class="st0"
   d="m 515.74,294.51 c 0,1.09 -0.14,2.18 -0.42,3.24 -0.28,1.07 -0.66,2.09 -1.14,3.06 -0.48,0.97 -1.08,1.89 -1.82,2.76 -0.74,0.87 -1.56,1.63 -2.47,2.3 -1.13,0.8 -2.3,1.45 -3.51,1.94 -1.21,0.49 -2.43,0.87 -3.64,1.12 -1.21,0.25 -2.38,0.42 -3.51,0.5 -1.13,0.08 -2.17,0.12 -3.12,0.12 -2.86,0 -5.45,-0.3 -7.77,-0.88 -2.32,-0.59 -4.43,-1.57 -6.34,-2.96 -1.65,-1.17 -3.02,-2.68 -4.13,-4.52 -1.1,-1.84 -1.66,-4.01 -1.66,-6.52 0,-1.95 0.4,-3.81 1.2,-5.6 0.8,-1.79 2.01,-3.36 3.64,-4.72 1.62,-1.36 3.68,-2.45 6.18,-3.26 2.49,-0.81 5.45,-1.22 8.87,-1.22 3.81,0 6.98,0.46 9.49,1.38 2.51,0.92 4.53,2.1 6.05,3.54 1.52,1.44 2.58,3.02 3.19,4.74 0.61,1.72 0.91,3.38 0.91,4.98 z m -4.68,0.04 c 0,-1.28 -0.23,-2.65 -0.68,-4.1 -0.46,-1.45 -1.26,-2.79 -2.41,-4 -1.15,-1.21 -2.69,-2.23 -4.62,-3.04 -1.93,-0.81 -4.34,-1.22 -7.25,-1.22 -2.95,0 -5.4,0.4 -7.35,1.2 -1.95,0.8 -3.51,1.81 -4.68,3.04 -1.17,1.23 -2,2.57 -2.5,4.04 -0.5,1.47 -0.75,2.88 -0.75,4.24 0,1.31 0.24,2.69 0.71,4.16 0.48,1.47 1.29,2.81 2.44,4.04 1.15,1.23 2.69,2.24 4.61,3.04 1.93,0.8 4.37,1.2 7.31,1.2 2.34,0 4.34,-0.26 6.01,-0.78 1.67,-0.52 3.07,-1.18 4.19,-1.98 1.13,-0.8 2.01,-1.69 2.67,-2.68 0.65,-0.98 1.15,-1.95 1.49,-2.88 0.35,-0.93 0.56,-1.79 0.65,-2.56 0.12,-0.77 0.16,-1.34 0.16,-1.72 z"
   id="path171" />
	<path
   class="st0"
   d="m 568.65,308.84 h -29.77 v -28.29 h 4.42 v 25.81 h 25.35 z"
   id="path173" />
	<path
   class="st0"
   d="m 617.21,287.43 c -0.22,-0.37 -0.47,-0.78 -0.75,-1.22 -0.28,-0.44 -0.68,-0.87 -1.2,-1.3 -1.13,-0.99 -2.57,-1.71 -4.32,-2.16 -1.76,-0.45 -3.63,-0.68 -5.62,-0.68 -1.26,0 -2.52,0.09 -3.8,0.26 -1.28,0.17 -2.44,0.46 -3.48,0.86 -1.04,0.4 -1.88,0.92 -2.54,1.56 -0.65,0.64 -0.98,1.43 -0.98,2.36 0,0.85 0.28,1.57 0.85,2.14 0.57,0.57 1.25,1.05 2.05,1.42 0.8,0.37 1.65,0.67 2.54,0.88 0.89,0.22 1.66,0.37 2.31,0.48 0.3,0.05 0.9,0.15 1.79,0.3 0.89,0.15 1.83,0.3 2.83,0.46 1,0.16 1.94,0.32 2.83,0.48 0.89,0.16 1.51,0.28 1.85,0.36 0.61,0.13 1.51,0.34 2.7,0.62 1.19,0.28 2.37,0.71 3.54,1.28 1.17,0.57 2.19,1.31 3.05,2.22 0.87,0.91 1.3,2.03 1.3,3.36 0,0.99 -0.35,1.98 -1.04,2.98 -0.69,1 -1.74,1.91 -3.15,2.72 -1.41,0.81 -3.19,1.47 -5.33,1.98 -2.15,0.51 -4.69,0.76 -7.64,0.76 -2.47,0 -4.58,-0.17 -6.34,-0.5 -1.76,-0.33 -3.24,-0.74 -4.45,-1.22 -1.78,-0.72 -3.16,-1.59 -4.16,-2.62 -1,-1.03 -1.69,-2.19 -2.08,-3.5 l 4.36,-1.4 c 0.04,0.56 0.13,1.12 0.26,1.68 0.13,0.56 0.41,1.09 0.84,1.6 0.52,0.67 1.19,1.23 2.01,1.68 0.82,0.45 1.74,0.83 2.76,1.12 1.02,0.29 2.11,0.51 3.28,0.64 1.17,0.13 2.34,0.2 3.51,0.2 2.21,0 4.12,-0.17 5.72,-0.52 1.6,-0.35 2.92,-0.8 3.96,-1.36 1.04,-0.56 1.81,-1.2 2.31,-1.92 0.5,-0.72 0.75,-1.45 0.75,-2.2 0,-1.01 -0.32,-1.83 -0.94,-2.44 -0.63,-0.61 -1.25,-1.07 -1.85,-1.36 -0.52,-0.27 -1.1,-0.5 -1.72,-0.7 -0.63,-0.2 -1.37,-0.39 -2.21,-0.56 -0.84,-0.17 -1.82,-0.35 -2.92,-0.54 -1.1,-0.19 -2.42,-0.4 -3.93,-0.64 -1.65,-0.27 -3.28,-0.57 -4.91,-0.92 -1.63,-0.35 -3.11,-0.81 -4.45,-1.38 -1.34,-0.57 -2.43,-1.3 -3.25,-2.18 -0.82,-0.88 -1.24,-1.97 -1.24,-3.28 0,-1.39 0.46,-2.55 1.37,-3.5 0.91,-0.95 2.09,-1.71 3.54,-2.28 1.45,-0.57 3.08,-0.98 4.88,-1.22 1.8,-0.24 3.58,-0.36 5.36,-0.36 2.95,0 5.37,0.25 7.28,0.74 1.91,0.49 3.44,1.08 4.61,1.76 1.17,0.68 2.05,1.37 2.63,2.06 0.59,0.69 1.01,1.24 1.27,1.64 z"
   id="path175" />
</g>
<g
   id="g187"
   transform="translate(-189.49001,-195.62)">
	<path
   class="st0"
   d="m 191.08,195.73 h 38.76 c 3.67,0 7.78,0.08 12.32,0.23 4.53,0.15 9.13,0.53 13.78,1.14 4.65,0.61 9.27,1.53 13.87,2.78 4.59,1.25 8.84,3.01 12.75,5.28 6.31,3.79 10.79,8.32 13.44,13.58 2.64,5.27 3.96,10.74 3.96,16.42 0,3.49 -0.32,6.5 -0.95,9.04 -0.63,2.54 -1.35,4.68 -2.15,6.42 -1.84,4.17 -4.25,7.67 -7.24,10.51 -2.99,2.84 -6.29,5.19 -9.9,7.05 -3.62,1.86 -7.38,3.32 -11.28,4.37 -3.9,1.06 -7.66,1.84 -11.28,2.33 -3.62,0.49 -7.04,0.8 -10.25,0.91 -3.22,0.11 -5.86,0.17 -7.93,0.17 h -47.89 v -80.23 z m 30.66,16.94 v 47.16 h 9.3 c 4.02,-0.07 8.3,-0.27 12.83,-0.57 4.53,-0.3 8.7,-1.23 12.49,-2.78 3.79,-1.55 6.95,-3.92 9.47,-7.1 2.53,-3.18 3.79,-7.65 3.79,-13.41 0,-2.8 -0.37,-5.57 -1.12,-8.3 -0.75,-2.73 -2.5,-5.34 -5.25,-7.84 -2.07,-1.82 -4.31,-3.22 -6.72,-4.21 -2.41,-0.98 -4.91,-1.68 -7.49,-2.1 -2.58,-0.42 -5.17,-0.66 -7.75,-0.74 -2.58,-0.07 -5.03,-0.11 -7.32,-0.11 z"
   id="path179" />
	<path
   class="st0"
   d="m 374.01,195.73 44.79,80.24 h -32.39 l -6.03,-12.84 H 335.6 l -6.03,12.84 h -32.39 l 45.13,-80.24 z m -16.36,19.09 c -0.8,2.05 -1.61,4.11 -2.41,6.19 -0.8,2.08 -1.67,4.15 -2.58,6.19 -0.69,1.52 -1.46,3.2 -2.33,5.06 -0.86,1.86 -1.75,3.75 -2.67,5.68 -0.92,1.93 -1.81,3.83 -2.67,5.68 -0.86,1.86 -1.64,3.54 -2.33,5.06 h 30.83 z"
   id="path181" />
	<path
   class="st0"
   d="m 412.77,195.62 h 93.54 v 15.91 h -31.52 v 64.44 h -30.32 v -64.44 h -31.7 z"
   id="path183" />
	<path
   class="st0"
   d="m 577.28,195.73 44.79,80.24 h -32.38 l -6.03,-12.84 h -44.79 l -6.03,12.84 h -32.38 l 45.13,-80.24 z m -16.36,19.09 c -0.81,2.05 -1.61,4.11 -2.41,6.19 -0.8,2.08 -1.67,4.15 -2.58,6.19 -0.69,1.52 -1.47,3.2 -2.33,5.06 -0.86,1.86 -1.75,3.75 -2.67,5.68 -0.92,1.93 -1.81,3.83 -2.67,5.68 -0.86,1.86 -1.64,3.54 -2.33,5.06 h 30.83 z"
   id="path185" />
</g>
<rect
   x="1.1999969"
   y="122.73998"
   class="st0"
   width="430.53"
   height="3.48"
   id="rect189" />
<rect
   x="1.1999969"
   y="122.73998"
   class="st0"
   width="430.53"
   height="3.48"
   id="rect191" />
<g
   id="g223"
   transform="translate(-189.49001,-195.62)">
	<g
   id="g203">
		<path
   class="st1"
   d="m 222.63,348.68 v 6.65 h -2.02 v -15.71 h 6.79 c 0.39,0 0.79,0.01 1.22,0.03 0.43,0.02 0.85,0.1 1.27,0.23 0.46,0.16 0.86,0.39 1.2,0.67 0.34,0.28 0.62,0.61 0.85,0.98 0.22,0.37 0.38,0.77 0.49,1.2 0.1,0.43 0.16,0.88 0.16,1.34 0,0.43 -0.05,0.87 -0.16,1.31 -0.1,0.45 -0.27,0.87 -0.5,1.27 -0.23,0.4 -0.53,0.76 -0.9,1.07 -0.37,0.31 -0.82,0.55 -1.34,0.71 -0.39,0.12 -0.78,0.19 -1.19,0.21 -0.41,0.02 -0.85,0.03 -1.32,0.03 h -4.55 z m 0,-1.85 H 227 c 0.61,0 1.12,-0.03 1.55,-0.09 0.43,-0.06 0.82,-0.27 1.18,-0.62 0.27,-0.27 0.46,-0.59 0.58,-0.96 0.12,-0.37 0.18,-0.75 0.18,-1.13 0,-0.27 -0.04,-0.59 -0.13,-0.97 -0.09,-0.38 -0.32,-0.72 -0.69,-1.03 -0.34,-0.3 -0.7,-0.47 -1.08,-0.52 -0.38,-0.05 -0.75,-0.08 -1.12,-0.08 h -4.84 z"
   id="path193" />
		<path
   class="st1"
   d="m 236.61,348.65 v 6.67 h -2.05 v -15.71 h 5.83 c 0.55,0 1.04,0.01 1.48,0.02 0.44,0.01 0.84,0.05 1.22,0.11 0.38,0.06 0.73,0.15 1.05,0.28 0.32,0.13 0.63,0.31 0.95,0.55 0.58,0.43 1,0.96 1.26,1.59 0.26,0.63 0.39,1.31 0.39,2.04 0,0.92 -0.16,1.65 -0.48,2.2 -0.32,0.55 -0.69,0.98 -1.1,1.28 -0.42,0.3 -0.83,0.51 -1.23,0.62 -0.41,0.11 -0.71,0.18 -0.9,0.21 l 4.41,6.81 h -2.49 l -4.27,-6.67 z m 0,-1.73 h 4.16 c 0.34,0 0.67,-0.01 0.98,-0.02 0.31,-0.01 0.62,-0.06 0.94,-0.13 0.73,-0.18 1.23,-0.5 1.52,-0.98 0.29,-0.48 0.43,-0.99 0.43,-1.56 0,-0.1 -0.01,-0.24 -0.02,-0.41 -0.02,-0.17 -0.05,-0.36 -0.11,-0.57 -0.06,-0.21 -0.15,-0.42 -0.28,-0.63 -0.13,-0.22 -0.3,-0.41 -0.52,-0.59 -0.42,-0.34 -0.88,-0.54 -1.38,-0.59 -0.5,-0.05 -1.06,-0.08 -1.67,-0.08 h -4.05 z"
   id="path195" />
		<path
   class="st1"
   d="m 251.25,339.62 v 15.71 h -2.09 v -15.71 z"
   id="path197" />
		<path
   class="st1"
   d="m 266.78,339.62 v 15.71 h -1.89 l -8.61,-12.77 0.18,12.77 h -1.96 v -15.71 h 1.96 l 8.52,12.59 -0.09,-12.59 z"
   id="path199" />
		<path
   class="st1"
   d="m 275.54,341.45 v 13.88 h -2.09 v -13.88 h -4.72 v -1.85 h 11.5 v 1.85 z"
   id="path201" />
	</g>
	<path
   class="st1"
   d="m 214.95,345.02 c -1.32,1.32 -3.47,1.32 -4.79,0 -1.32,-1.32 -1.32,-3.47 0,-4.79 1.32,-1.33 3.47,-1.33 4.79,0 1.33,1.32 1.33,3.47 0,4.79"
   id="path205" />
	<path
   class="st1"
   d="m 205.36,345.02 c -1.32,1.32 -3.47,1.32 -4.79,0 -1.33,-1.32 -1.33,-3.47 0,-4.79 1.32,-1.33 3.47,-1.33 4.79,0 1.33,1.32 1.33,3.47 0,4.79"
   id="path207" />
	<path
   class="st1"
   d="m 214.95,335.71 c -1.32,1.32 -3.47,1.32 -4.79,0 -1.32,-1.33 -1.32,-3.47 0,-4.79 1.32,-1.32 3.47,-1.32 4.79,0 1.33,1.31 1.33,3.46 0,4.79"
   id="path209" />
	<path
   class="st1"
   d="m 205.36,335.71 c -1.32,1.32 -3.47,1.32 -4.79,0 -1.33,-1.33 -1.33,-3.47 0,-4.79 1.32,-1.32 3.47,-1.32 4.79,0 1.33,1.31 1.33,3.46 0,4.79"
   id="path211" />
	<path
   class="st1"
   d="m 214.95,354.61 c -1.32,1.32 -3.47,1.32 -4.79,0 -1.32,-1.32 -1.32,-3.47 0,-4.79 1.32,-1.32 3.47,-1.32 4.79,0 1.33,1.32 1.33,3.47 0,4.79"
   id="path213" />
	<path
   class="st1"
   d="m 205.36,354.61 c -1.32,1.32 -3.47,1.32 -4.79,0 -1.33,-1.32 -1.33,-3.47 0,-4.79 1.32,-1.32 3.47,-1.32 4.79,0 1.33,1.32 1.33,3.47 0,4.79"
   id="path215" />
	<path
   class="st1"
   d="m 195.78,345.02 c -1.32,1.32 -3.47,1.32 -4.79,0 -1.32,-1.32 -1.32,-3.47 0,-4.79 1.32,-1.33 3.47,-1.33 4.79,0 1.32,1.32 1.32,3.47 0,4.79"
   id="path217" />
	<path
   class="st1"
   d="m 195.78,335.71 c -1.32,1.32 -3.47,1.32 -4.79,0 -1.32,-1.33 -1.32,-3.47 0,-4.79 1.32,-1.32 3.47,-1.32 4.79,0 1.32,1.31 1.32,3.46 0,4.79"
   id="path219" />
	<path
   class="st1"
   d="m 195.78,354.61 c -1.32,1.32 -3.47,1.32 -4.79,0 -1.32,-1.32 -1.32,-3.47 0,-4.79 1.32,-1.32 3.47,-1.32 4.79,0 1.32,1.32 1.32,3.47 0,4.79"
   id="path221" />
</g>
<g
   id="g243"
   transform="translate(-189.49001,-195.62)">
	<g
   id="g239">
		<path
   class="st2"
   d="m 350.24,348.25 v 6.65 h -2.02 V 339.19 H 355 c 0.38,0 0.79,0.01 1.22,0.03 0.43,0.02 0.85,0.1 1.27,0.23 0.46,0.16 0.86,0.39 1.2,0.67 0.34,0.28 0.62,0.61 0.84,0.98 0.22,0.37 0.39,0.77 0.49,1.2 0.1,0.43 0.16,0.88 0.16,1.34 0,0.43 -0.05,0.87 -0.16,1.31 -0.1,0.45 -0.27,0.87 -0.5,1.27 -0.23,0.4 -0.53,0.76 -0.9,1.07 -0.37,0.31 -0.82,0.55 -1.34,0.71 -0.39,0.12 -0.78,0.19 -1.19,0.21 -0.41,0.02 -0.85,0.03 -1.32,0.03 h -4.53 z m 0,-1.85 h 4.37 c 0.61,0 1.12,-0.03 1.55,-0.09 0.43,-0.06 0.82,-0.27 1.18,-0.62 0.27,-0.27 0.46,-0.59 0.58,-0.96 0.12,-0.37 0.18,-0.75 0.18,-1.13 0,-0.27 -0.04,-0.59 -0.13,-0.97 -0.09,-0.38 -0.32,-0.72 -0.69,-1.03 -0.34,-0.3 -0.7,-0.47 -1.08,-0.52 -0.38,-0.05 -0.75,-0.08 -1.12,-0.08 h -4.84 z"
   id="path225" />
		<path
   class="st2"
   d="m 370.62,350.09 h -5.99 l -1.76,4.81 h -2.22 l 5.99,-15.71 h 2.18 l 5.72,15.71 h -2.2 z m -0.62,-1.75 -2.29,-6.54 -2.4,6.54 z"
   id="path227" />
		<path
   class="st2"
   d="m 391.31,349.2 c -0.16,0.74 -0.44,1.48 -0.85,2.2 -0.4,0.73 -0.92,1.38 -1.57,1.96 -0.65,0.58 -1.41,1.05 -2.29,1.4 -0.88,0.36 -1.89,0.53 -3.04,0.53 -1.29,0 -2.42,-0.23 -3.38,-0.68 -0.96,-0.45 -1.77,-1.06 -2.4,-1.81 -0.64,-0.76 -1.11,-1.63 -1.42,-2.63 -0.31,-0.99 -0.47,-2.04 -0.47,-3.14 0,-1.11 0.16,-2.17 0.49,-3.17 0.33,-1 0.82,-1.88 1.47,-2.63 0.65,-0.75 1.48,-1.35 2.48,-1.79 1,-0.44 2.18,-0.67 3.53,-0.67 0.9,0 1.7,0.09 2.39,0.28 0.69,0.19 1.29,0.43 1.79,0.73 0.5,0.3 0.93,0.64 1.28,1 0.35,0.36 0.64,0.72 0.87,1.08 0.23,0.36 0.41,0.69 0.53,0.99 0.13,0.3 0.22,0.55 0.28,0.72 l -2.11,0.44 c -0.1,-0.3 -0.21,-0.58 -0.32,-0.85 -0.11,-0.27 -0.31,-0.57 -0.61,-0.91 -0.39,-0.47 -0.92,-0.9 -1.6,-1.27 -0.68,-0.37 -1.52,-0.56 -2.51,-0.56 -0.84,0 -1.65,0.16 -2.4,0.49 -0.76,0.33 -1.39,0.82 -1.91,1.49 -0.5,0.62 -0.85,1.33 -1.03,2.11 -0.18,0.79 -0.28,1.58 -0.28,2.38 0,0.98 0.12,1.87 0.37,2.68 0.24,0.81 0.61,1.51 1.08,2.09 0.48,0.59 1.06,1.04 1.76,1.37 0.7,0.33 1.5,0.49 2.4,0.49 0.58,0 1.15,-0.08 1.73,-0.26 0.57,-0.17 1.09,-0.44 1.57,-0.81 0.47,-0.37 0.88,-0.85 1.22,-1.43 0.34,-0.59 0.57,-1.29 0.69,-2.13 z"
   id="path229" />
		<path
   class="st2"
   d="m 397.3,347.18 -2.23,2.25 v 5.47 h -2.09 v -15.71 h 2.09 v 7.68 l 7.45,-7.68 h 2.58 l -6.36,6.5 6.63,9.21 h -2.54 z"
   id="path231" />
		<path
   class="st2"
   d="m 415.59,350.09 h -5.99 l -1.76,4.81 h -2.23 l 5.99,-15.71 h 2.18 l 5.72,15.71 h -2.2 z m -0.63,-1.75 -2.29,-6.54 -2.4,6.54 z"
   id="path233" />
		<path
   class="st2"
   d="m 436.26,346.6 v 8.3 h -1.8 v -2.2 c -0.33,0.48 -0.71,0.88 -1.14,1.21 -0.44,0.33 -0.91,0.6 -1.41,0.81 -0.51,0.21 -1.03,0.36 -1.57,0.44 -0.54,0.09 -1.08,0.13 -1.61,0.13 -1.22,0 -2.31,-0.2 -3.27,-0.6 -0.96,-0.4 -1.78,-0.96 -2.46,-1.68 -0.68,-0.72 -1.19,-1.57 -1.56,-2.56 -0.36,-0.99 -0.54,-2.06 -0.54,-3.22 0,-0.99 0.16,-1.99 0.47,-3 0.31,-1.01 0.79,-1.92 1.45,-2.73 0.65,-0.81 1.49,-1.46 2.52,-1.97 1.03,-0.5 2.26,-0.76 3.68,-0.76 1.01,0 1.98,0.16 2.93,0.49 0.94,0.33 1.79,0.83 2.55,1.51 0.52,0.5 0.92,0.99 1.19,1.46 0.28,0.47 0.47,0.83 0.59,1.08 l -2.16,0.58 c -0.09,-0.24 -0.21,-0.52 -0.37,-0.85 -0.16,-0.33 -0.4,-0.66 -0.73,-1 -0.16,-0.16 -0.36,-0.34 -0.59,-0.52 -0.23,-0.18 -0.51,-0.35 -0.83,-0.5 -0.33,-0.15 -0.7,-0.27 -1.11,-0.37 -0.41,-0.1 -0.88,-0.14 -1.4,-0.14 -1.1,0 -2.02,0.2 -2.78,0.61 -0.76,0.41 -1.36,0.93 -1.83,1.57 -0.46,0.64 -0.79,1.34 -0.99,2.1 -0.2,0.76 -0.3,1.5 -0.3,2.21 0,0.74 0.1,1.49 0.31,2.25 0.21,0.76 0.54,1.45 0.99,2.08 0.45,0.62 1.05,1.13 1.79,1.52 0.74,0.39 1.65,0.59 2.72,0.59 0.49,0 1.05,-0.07 1.68,-0.21 0.63,-0.14 1.23,-0.4 1.8,-0.78 0.57,-0.38 1.05,-0.9 1.43,-1.56 0.39,-0.66 0.57,-1.51 0.55,-2.55 h -5.5 v -1.76 h 7.3 z"
   id="path235" />
		<path
   class="st2"
   d="m 441.6,347.74 v 5.32 h 9.08 v 1.85 h -11.1 V 339.2 h 10.84 v 1.85 h -8.81 v 4.85 h 7.65 v 1.85 h -7.66 z"
   id="path237" />
	</g>
	<polygon
   class="st2"
   points="338.31,349.95 324.63,349.95 324.63,339.33 324.63,338.13 319.69,335.13 319.31,334.9 319.31,336.65 319.31,338.13 319.31,354.9 343.59,354.9 343.59,334.9 334.17,328.53 325.16,328.53 338.31,337.37 "
   id="polygon241" />
</g>
<g
   id="g263"
   transform="translate(-189.49001,-195.62)">
	<polygon
   class="st3"
   points="481.11,334.66 481.11,351.22 493.4,351.22 493.4,356.44 509.98,342.9 493.37,329.36 493.37,334.66 "
   id="polygon245" />
	<g
   id="g261">
		<path
   class="st3"
   d="m 515.81,349.15 v 6.65 h -2.02 v -15.71 h 6.78 c 0.39,0 0.8,0.01 1.23,0.03 0.43,0.02 0.85,0.1 1.27,0.23 0.46,0.16 0.86,0.38 1.2,0.67 0.34,0.28 0.62,0.61 0.85,0.98 0.22,0.37 0.38,0.77 0.49,1.2 0.11,0.43 0.16,0.88 0.16,1.34 0,0.43 -0.05,0.87 -0.16,1.31 -0.1,0.45 -0.27,0.87 -0.5,1.27 -0.23,0.4 -0.53,0.76 -0.9,1.07 -0.37,0.31 -0.81,0.55 -1.33,0.71 -0.39,0.12 -0.78,0.19 -1.19,0.21 -0.41,0.02 -0.85,0.03 -1.32,0.03 h -4.56 z m 0,-1.85 h 4.37 c 0.6,0 1.12,-0.03 1.55,-0.09 0.43,-0.06 0.82,-0.27 1.18,-0.62 0.26,-0.27 0.46,-0.59 0.58,-0.96 0.12,-0.37 0.18,-0.75 0.18,-1.13 0,-0.27 -0.05,-0.59 -0.13,-0.97 -0.09,-0.38 -0.32,-0.72 -0.69,-1.03 -0.34,-0.3 -0.7,-0.47 -1.08,-0.52 -0.38,-0.05 -0.75,-0.08 -1.12,-0.08 h -4.84 z"
   id="path247" />
		<path
   class="st3"
   d="m 529.78,349.13 v 6.67 h -2.05 v -15.71 h 5.83 c 0.55,0 1.04,0.01 1.48,0.02 0.44,0.01 0.84,0.05 1.22,0.11 0.38,0.06 0.73,0.15 1.05,0.28 0.32,0.13 0.63,0.31 0.95,0.55 0.58,0.43 1,0.96 1.25,1.59 0.26,0.63 0.39,1.31 0.39,2.04 0,0.92 -0.16,1.65 -0.48,2.2 -0.32,0.55 -0.69,0.97 -1.1,1.28 -0.42,0.3 -0.83,0.51 -1.24,0.62 -0.41,0.11 -0.71,0.18 -0.9,0.21 l 4.41,6.81 h -2.49 l -4.27,-6.67 z m 0,-1.74 h 4.16 c 0.34,0 0.66,-0.01 0.98,-0.02 0.31,-0.01 0.62,-0.06 0.93,-0.13 0.73,-0.18 1.23,-0.5 1.52,-0.98 0.29,-0.48 0.44,-0.99 0.44,-1.56 0,-0.1 -0.01,-0.24 -0.02,-0.41 -0.01,-0.17 -0.05,-0.36 -0.11,-0.57 -0.06,-0.21 -0.15,-0.42 -0.28,-0.63 -0.13,-0.22 -0.3,-0.41 -0.52,-0.59 -0.42,-0.34 -0.88,-0.54 -1.38,-0.59 -0.5,-0.05 -1.06,-0.08 -1.67,-0.08 h -4.05 z"
   id="path249" />
		<path
   class="st3"
   d="m 557.79,347.79 c 0,1.19 -0.17,2.29 -0.51,3.32 -0.34,1.02 -0.85,1.91 -1.51,2.67 -0.67,0.76 -1.5,1.35 -2.49,1.78 -0.99,0.43 -2.14,0.65 -3.45,0.65 -1.2,0 -2.28,-0.2 -3.25,-0.6 -0.96,-0.4 -1.79,-0.96 -2.47,-1.69 -0.68,-0.73 -1.21,-1.59 -1.58,-2.6 -0.37,-1.01 -0.56,-2.13 -0.56,-3.36 0,-1.45 0.23,-2.7 0.69,-3.75 0.46,-1.05 1.06,-1.9 1.81,-2.57 0.75,-0.67 1.59,-1.16 2.54,-1.47 0.94,-0.31 1.9,-0.47 2.88,-0.47 1.1,0 2.13,0.18 3.09,0.55 0.96,0.36 1.8,0.89 2.51,1.58 0.71,0.69 1.27,1.54 1.68,2.55 0.42,0.99 0.62,2.13 0.62,3.41 z m -2.27,0.02 c 0,-0.95 -0.13,-1.82 -0.38,-2.6 -0.25,-0.79 -0.62,-1.46 -1.09,-2.04 -0.48,-0.57 -1.06,-1.01 -1.76,-1.32 -0.7,-0.31 -1.5,-0.47 -2.4,-0.47 -0.99,0 -1.85,0.18 -2.56,0.54 -0.71,0.36 -1.3,0.83 -1.76,1.43 -0.46,0.6 -0.8,1.3 -1.01,2.09 -0.22,0.79 -0.32,1.63 -0.32,2.52 0,0.83 0.1,1.64 0.31,2.43 0.21,0.79 0.54,1.49 1,2.1 0.46,0.62 1.05,1.11 1.77,1.49 0.72,0.38 1.58,0.57 2.59,0.57 1.05,0 1.94,-0.2 2.66,-0.6 0.72,-0.4 1.3,-0.92 1.73,-1.56 0.44,-0.64 0.75,-1.36 0.93,-2.17 0.2,-0.8 0.29,-1.61 0.29,-2.41 z"
   id="path251" />
		<path
   class="st3"
   d="m 575.48,340.09 v 15.71 h -2.07 l 0.29,-13.17 -4.96,13.17 h -1.62 l -4.87,-12.97 0.22,12.97 h -2.05 v -15.71 h 2.69 l 4.83,12.88 4.85,-12.88 z"
   id="path253" />
		<path
   class="st3"
   d="m 593.92,347.79 c 0,1.19 -0.17,2.29 -0.51,3.32 -0.34,1.02 -0.84,1.91 -1.51,2.67 -0.67,0.76 -1.5,1.35 -2.49,1.78 -0.99,0.43 -2.14,0.65 -3.45,0.65 -1.2,0 -2.28,-0.2 -3.25,-0.6 -0.96,-0.4 -1.79,-0.96 -2.47,-1.69 -0.68,-0.73 -1.21,-1.59 -1.58,-2.6 -0.37,-1.01 -0.55,-2.13 -0.55,-3.36 0,-1.45 0.23,-2.7 0.69,-3.75 0.46,-1.05 1.06,-1.9 1.81,-2.57 0.75,-0.67 1.59,-1.16 2.54,-1.47 0.94,-0.31 1.9,-0.47 2.88,-0.47 1.1,0 2.13,0.18 3.09,0.55 0.96,0.36 1.8,0.89 2.51,1.58 0.71,0.69 1.27,1.54 1.68,2.55 0.41,0.99 0.61,2.13 0.61,3.41 z m -2.26,0.02 c 0,-0.95 -0.13,-1.82 -0.38,-2.6 -0.25,-0.79 -0.62,-1.46 -1.09,-2.04 -0.48,-0.57 -1.06,-1.01 -1.76,-1.32 -0.7,-0.31 -1.5,-0.47 -2.4,-0.47 -0.99,0 -1.84,0.18 -2.56,0.54 -0.71,0.36 -1.3,0.83 -1.76,1.43 -0.46,0.6 -0.8,1.3 -1.01,2.09 -0.22,0.79 -0.32,1.63 -0.32,2.52 0,0.83 0.1,1.64 0.31,2.43 0.21,0.79 0.54,1.49 1,2.1 0.46,0.62 1.05,1.11 1.77,1.49 0.72,0.38 1.58,0.57 2.59,0.57 1.05,0 1.94,-0.2 2.66,-0.6 0.72,-0.4 1.3,-0.92 1.74,-1.56 0.44,-0.64 0.75,-1.36 0.93,-2.17 0.18,-0.8 0.28,-1.61 0.28,-2.41 z"
   id="path255" />
		<path
   class="st3"
   d="m 602.07,341.92 v 13.88 h -2.09 v -13.88 h -4.72 v -1.85 h 11.5 v 1.85 z"
   id="path257" />
		<path
   class="st3"
   d="m 610.86,348.64 v 5.32 h 9.08 v 1.85 h -11.1 V 340.1 h 10.83 v 1.85 h -8.81 v 4.85 h 7.65 v 1.85 h -7.65 z"
   id="path259" />
	</g>
</g>
<rect
   x="0"
   y="165.91"
   class="st0"
   width="430.53"
   height="3.48"
   id="rect265" />
</svg>
